<?xml version="1.0" encoding="UTF-8"?>
<svg xmlns="http://www.w3.org/2000/svg" xmlns:xlink="http://www.w3.org/1999/xlink" width="24px" height="22px" viewBox="0 0 23 22" version="1.1">
<g id="surface1">
<path style=" stroke:none;fill-rule:nonzero;fill:rgb(0%,0%,0%);fill-opacity:1;" d="M 10.78125 0.617188 C 9.910156 0.828125 9.195312 1.179688 9.195312 1.382812 C 9.195312 1.59375 9.792969 1.519531 10.265625 1.230469 C 10.757812 0.941406 10.96875 1.003906 10.746094 1.382812 C 10.558594 1.707031 10.710938 1.769531 11.441406 1.695312 C 11.816406 1.65625 12.097656 1.558594 12.195312 1.417969 C 12.289062 1.28125 12.527344 1.207031 12.890625 1.191406 C 13.410156 1.191406 13.597656 1.292969 13.289062 1.417969 C 13.207031 1.445312 13.171875 1.519531 13.21875 1.570312 C 13.265625 1.621094 13.382812 1.570312 13.492188 1.457031 C 13.597656 1.34375 13.738281 1.292969 13.804688 1.332031 C 14.019531 1.46875 14.9375 1.519531 15.019531 1.394531 C 15.054688 1.332031 14.914062 1.144531 14.714844 0.992188 C 14.441406 0.792969 14.019531 0.664062 13.207031 0.550781 C 11.839844 0.351562 11.816406 0.351562 10.78125 0.617188 Z M 10.78125 0.617188 "/>
<path style=" stroke:none;fill-rule:nonzero;fill:rgb(0%,0%,0%);fill-opacity:1;" d="M 12.40625 1.605469 C 12.3125 1.671875 12.3125 1.757812 12.429688 1.921875 C 12.558594 2.109375 12.628906 2.121094 12.878906 1.996094 C 13.136719 1.871094 13.160156 1.820312 13.019531 1.683594 C 12.84375 1.496094 12.621094 1.457031 12.40625 1.605469 Z M 12.40625 1.605469 "/>
<path style=" stroke:none;fill-rule:nonzero;fill:rgb(0%,0%,0%);fill-opacity:1;" d="M 15.035156 1.605469 C 15.007812 1.65625 15.078125 1.769531 15.199219 1.859375 C 15.363281 1.957031 15.445312 1.957031 15.5 1.871094 C 15.550781 1.796875 15.5 1.683594 15.417969 1.621094 C 15.210938 1.480469 15.117188 1.480469 15.035156 1.605469 Z M 15.035156 1.605469 "/>
<path style=" stroke:none;fill-rule:nonzero;fill:rgb(0%,0%,0%);fill-opacity:1;" d="M 16.082031 2.789062 C 16.128906 2.914062 15.941406 2.964844 15.410156 2.976562 C 14.796875 3.015625 14.632812 3.0625 14.46875 3.289062 C 14.347656 3.453125 14.183594 3.667969 14.101562 3.765625 C 13.339844 4.683594 13.277344 4.835938 13.371094 5.925781 C 13.464844 7.058594 13.738281 7.898438 14.019531 7.921875 C 14.113281 7.9375 14.304688 7.949219 14.429688 7.960938 C 14.667969 7.972656 14.691406 8.050781 14.5625 8.414062 C 14.511719 8.539062 14.605469 8.652344 14.84375 8.765625 C 15.324219 9.003906 15.5 8.902344 15.609375 8.324219 C 15.667969 8.023438 15.726562 7.9375 15.75 8.074219 C 15.796875 8.25 15.847656 8.273438 15.972656 8.148438 C 16.105469 8.035156 16.136719 8.050781 16.136719 8.1875 C 16.136719 8.449219 15.644531 9.203125 15.375 9.355469 C 14.714844 9.71875 14.585938 9.832031 14.691406 9.90625 C 14.75 9.945312 14.855469 10.222656 14.9375 10.511719 C 15.019531 10.785156 15.171875 11.152344 15.292969 11.300781 L 15.5 11.578125 L 16.054688 10.824219 C 16.363281 10.410156 16.609375 9.96875 16.609375 9.855469 C 16.609375 9.71875 16.667969 9.667969 16.785156 9.71875 C 16.894531 9.757812 16.960938 9.71875 16.960938 9.605469 C 16.960938 9.503906 17.058594 9.316406 17.1875 9.179688 C 17.492188 8.851562 17.789062 8.175781 17.789062 7.785156 C 17.789062 7.609375 17.832031 7.410156 17.90625 7.332031 C 17.964844 7.269531 18.09375 6.867188 18.199219 6.441406 C 18.355469 5.789062 18.367188 5.574219 18.246094 5.148438 C 18.164062 4.871094 18.035156 4.582031 17.9375 4.507812 C 17.855469 4.433594 17.789062 4.320312 17.789062 4.257812 C 17.789062 4.195312 17.679688 4.03125 17.566406 3.90625 C 17.351562 3.679688 17.328125 3.679688 17.28125 3.867188 C 17.246094 3.992188 17.222656 3.957031 17.207031 3.753906 C 17.199219 3.378906 16.835938 2.886719 16.574219 2.886719 C 16.46875 2.886719 16.351562 2.824219 16.3125 2.761719 C 16.210938 2.585938 16.023438 2.613281 16.082031 2.789062 Z M 16.960938 4.207031 C 17.042969 4.320312 17.058594 4.394531 16.988281 4.394531 C 16.929688 4.394531 16.847656 4.308594 16.796875 4.207031 C 16.761719 4.105469 16.753906 4.019531 16.773438 4.019531 C 16.796875 4.019531 16.878906 4.105469 16.960938 4.207031 Z M 16.730469 4.835938 C 16.730469 4.933594 16.644531 5.023438 16.550781 5.023438 C 16.246094 5.023438 16.339844 4.773438 16.703125 4.660156 C 16.714844 4.644531 16.730469 4.734375 16.730469 4.835938 Z M 17.304688 5.261719 C 17.292969 5.425781 17.28125 5.425781 17.234375 5.234375 C 17.207031 5.125 17.125 5.046875 17.070312 5.085938 C 17.011719 5.136719 16.960938 5.074219 16.960938 4.949219 C 16.960938 4.785156 17 4.773438 17.140625 4.898438 C 17.234375 4.984375 17.304688 5.148438 17.304688 5.261719 Z M 17.304688 5.261719 "/>
<path style=" stroke:none;fill-rule:nonzero;fill:rgb(0%,0%,0%);fill-opacity:1;" d="M 8.488281 3.191406 C 8.34375 3.605469 8.34375 3.640625 8.476562 3.640625 C 8.589844 3.640625 8.765625 3.015625 8.671875 2.914062 C 8.640625 2.886719 8.558594 3 8.488281 3.191406 Z M 8.488281 3.191406 "/>
<path style=" stroke:none;fill-rule:nonzero;fill:rgb(0%,0%,0%);fill-opacity:1;" d="M 7.789062 4.46875 C 7.625 4.683594 7.566406 4.921875 7.601562 5.136719 C 7.789062 6.203125 7.800781 6.65625 7.664062 6.65625 C 7.566406 6.65625 7.542969 6.691406 7.582031 6.730469 C 7.625 6.78125 7.554688 6.96875 7.425781 7.15625 C 7.121094 7.609375 7.132812 7.835938 7.449219 8.0625 L 7.695312 8.238281 L 7.425781 8.640625 C 7.273438 8.851562 7.109375 9.003906 7.050781 8.964844 C 7 8.929688 6.957031 8.992188 6.957031 9.089844 C 6.957031 9.203125 7.132812 9.367188 7.34375 9.46875 C 7.707031 9.617188 7.757812 9.695312 7.816406 10.308594 C 7.863281 10.6875 7.898438 11.25 7.898438 11.578125 C 7.898438 11.929688 7.964844 12.242188 8.074219 12.355469 C 8.296875 12.582031 9.390625 13.035156 10.019531 13.132812 C 10.347656 13.199219 10.582031 13.335938 10.839844 13.660156 C 11.066406 13.9375 11.191406 14.027344 11.191406 13.902344 C 11.191406 13.800781 11.265625 13.6875 11.347656 13.648438 C 11.453125 13.613281 11.453125 13.5625 11.324219 13.398438 C 11.191406 13.222656 11.191406 13.171875 11.347656 13.109375 C 11.453125 13.070312 11.582031 12.871094 11.652344 12.65625 C 11.816406 12.15625 11.816406 12.054688 11.617188 12.054688 C 11.535156 12.054688 11.394531 11.96875 11.3125 11.867188 C 11.230469 11.765625 11.078125 11.679688 10.957031 11.679688 C 10.738281 11.679688 10.605469 11.441406 10.605469 11.050781 C 10.605469 10.910156 10.488281 10.699219 10.359375 10.558594 C 10.144531 10.347656 10.109375 10.207031 10.15625 9.667969 C 10.214844 9.054688 10.089844 8.703125 9.945312 9.089844 C 9.851562 9.367188 9.578125 9.34375 9.425781 9.042969 C 9.359375 8.902344 9.226562 8.789062 9.132812 8.789062 C 9.039062 8.789062 8.957031 8.714844 8.957031 8.613281 C 8.957031 8.289062 9.207031 8.25 9.441406 8.527344 C 9.699219 8.828125 10.007812 8.765625 9.769531 8.464844 C 9.6875 8.351562 9.671875 8.289062 9.753906 8.289062 C 9.828125 8.289062 9.734375 8.113281 9.566406 7.910156 C 9.261719 7.546875 9.25 7.546875 9.167969 7.796875 C 9.085938 8.011719 9.015625 8.050781 8.746094 7.972656 C 8.570312 7.910156 8.226562 7.835938 7.980469 7.796875 C 7.734375 7.761719 7.53125 7.660156 7.53125 7.597656 C 7.53125 7.410156 8.414062 5.539062 8.496094 5.523438 C 8.546875 5.523438 8.613281 5.652344 8.652344 5.800781 C 8.683594 5.964844 8.828125 6.226562 8.957031 6.402344 C 9.144531 6.65625 9.214844 6.679688 9.300781 6.542969 C 9.402344 6.367188 9.558594 6.554688 10.253906 7.722656 C 10.472656 8.097656 10.957031 8.226562 10.902344 7.886719 C 10.875 7.761719 10.820312 7.597656 10.769531 7.523438 C 10.640625 7.296875 10.6875 6.628906 10.839844 6.53125 C 10.921875 6.480469 11.21875 6.46875 11.5 6.503906 C 12.097656 6.566406 12.125 6.492188 11.769531 5.8125 C 11.191406 4.695312 10.6875 4.394531 9.402344 4.34375 C 8.859375 4.320312 8.34375 4.269531 8.238281 4.21875 C 8.109375 4.15625 7.964844 4.230469 7.789062 4.46875 Z M 9.195312 4.644531 C 9.195312 4.707031 9.144531 4.773438 9.074219 4.773438 C 9.015625 4.773438 8.957031 4.707031 8.957031 4.644531 C 8.957031 4.570312 9.015625 4.519531 9.074219 4.519531 C 9.144531 4.519531 9.195312 4.570312 9.195312 4.644531 Z M 8.96875 5.1875 C 8.847656 5.300781 8.839844 5.285156 8.910156 5.109375 C 8.941406 4.984375 9.015625 4.921875 9.050781 4.960938 C 9.085938 4.996094 9.050781 5.097656 8.96875 5.1875 Z M 10.109375 5.726562 C 10.0625 5.765625 9.96875 5.664062 9.898438 5.5 C 9.753906 5.222656 9.753906 5.222656 9.96875 5.425781 C 10.089844 5.550781 10.144531 5.675781 10.109375 5.726562 Z M 11.027344 5.574219 C 11.382812 5.863281 11.183594 5.902344 10.722656 5.652344 C 10.402344 5.460938 10.371094 5.410156 10.558594 5.398438 C 10.6875 5.398438 10.902344 5.476562 11.027344 5.574219 Z M 9.121094 5.675781 C 9.085938 5.738281 9.121094 5.875 9.214844 5.988281 C 9.320312 6.140625 9.320312 6.179688 9.226562 6.101562 C 8.96875 5.953125 8.828125 5.5625 9.015625 5.5625 C 9.113281 5.5625 9.15625 5.613281 9.121094 5.675781 Z M 9.957031 11.550781 C 10.132812 11.765625 10.144531 11.855469 10.039062 12.117188 C 9.910156 12.40625 9.851562 12.429688 9.464844 12.355469 C 8.710938 12.207031 8.308594 11.488281 8.933594 11.390625 C 9.589844 11.289062 9.746094 11.3125 9.957031 11.550781 Z M 9.957031 11.550781 "/>
<path style=" stroke:none;fill-rule:nonzero;fill:rgb(0%,0%,0%);fill-opacity:1;" d="M 7.039062 6.769531 C 7 6.945312 7.027344 6.996094 7.144531 6.945312 C 7.234375 6.90625 7.308594 6.804688 7.308594 6.707031 C 7.308594 6.441406 7.109375 6.492188 7.039062 6.769531 Z M 7.039062 6.769531 "/>
<path style=" stroke:none;fill-rule:nonzero;fill:rgb(0%,0%,0%);fill-opacity:1;" d="M 13.867188 9.441406 C 13.832031 9.59375 13.84375 9.808594 13.902344 9.90625 C 13.972656 10.03125 14.019531 10.046875 14.019531 9.945312 C 14.019531 9.871094 14.125 9.792969 14.253906 9.792969 C 14.550781 9.792969 14.550781 9.65625 14.253906 9.378906 C 13.949219 9.105469 13.9375 9.117188 13.867188 9.441406 Z M 13.867188 9.441406 "/>
<path style=" stroke:none;fill-rule:nonzero;fill:rgb(0%,0%,0%);fill-opacity:1;" d="M 9.132812 13.9375 C 8.96875 14.214844 8.722656 14.515625 8.570312 14.628906 C 8.191406 14.894531 6.964844 15.308594 6.566406 15.320312 C 6.378906 15.320312 5.636719 15.609375 4.90625 15.949219 C 4.175781 16.285156 3.542969 16.574219 3.492188 16.574219 C 3.367188 16.574219 2.71875 17.117188 2.71875 17.226562 C 2.71875 17.292969 2.480469 17.742188 2.199219 18.246094 C 1.539062 19.425781 0.890625 21.234375 0.996094 21.660156 L 1.066406 21.976562 L 7.800781 21.976562 L 7.734375 21.636719 L 7.664062 21.285156 L 7.839844 21.625 C 8.027344 21.976562 8.027344 21.976562 9.300781 21.976562 L 10.570312 21.976562 L 10.511719 21.636719 C 10.488281 21.433594 10.308594 20.503906 10.121094 19.550781 C 9.710938 17.492188 9.6875 17.050781 9.992188 17.164062 C 10.132812 17.226562 10.101562 17.128906 9.863281 16.828125 C 9.566406 16.460938 9.558594 16.386719 9.710938 16.300781 C 9.886719 16.199219 9.886719 16.148438 9.710938 15.796875 C 9.578125 15.53125 9.523438 15.105469 9.535156 14.429688 C 9.535156 13.875 9.523438 13.4375 9.484375 13.4375 C 9.453125 13.4375 9.300781 13.660156 9.132812 13.9375 Z M 7.648438 21.160156 C 7.648438 21.222656 7.601562 21.195312 7.542969 21.097656 C 7.484375 20.996094 7.4375 20.820312 7.4375 20.71875 C 7.4375 20.519531 7.636719 20.921875 7.648438 21.160156 Z M 7.648438 21.160156 "/>
<path style=" stroke:none;fill-rule:nonzero;fill:rgb(0%,0%,0%);fill-opacity:1;" d="M 11.203125 14.578125 C 11.191406 14.867188 11.488281 15.230469 11.675781 15.15625 C 11.808594 15.105469 11.796875 15.082031 11.640625 15.082031 C 11.535156 15.070312 11.394531 14.917969 11.335938 14.71875 C 11.265625 14.527344 11.203125 14.464844 11.203125 14.578125 Z M 11.203125 14.578125 "/>
<path style=" stroke:none;fill-rule:nonzero;fill:rgb(0%,0%,0%);fill-opacity:1;" d="M 16.351562 14.765625 C 16.246094 14.878906 16.394531 16.011719 16.539062 16.097656 C 16.609375 16.160156 16.550781 16.199219 16.394531 16.199219 C 16.175781 16.199219 16.136719 16.261719 16.175781 16.523438 C 16.199219 16.699219 16.28125 16.890625 16.351562 16.941406 C 16.457031 17.003906 16.410156 17.101562 16.199219 17.277344 C 15.867188 17.542969 15.796875 17.742188 16.082031 17.628906 C 16.175781 17.578125 16.257812 17.617188 16.257812 17.679688 C 16.257812 17.917969 16.082031 17.945312 15.847656 17.753906 C 15.621094 17.578125 15.621094 17.554688 15.820312 17.441406 C 16.117188 17.265625 16.066406 17.101562 15.726562 17.140625 C 15.433594 17.179688 15.316406 16.925781 15.550781 16.765625 C 15.726562 16.652344 15.691406 16.488281 15.480469 16.398438 C 15.335938 16.347656 15.304688 16.375 15.351562 16.511719 C 15.398438 16.613281 15.375 16.726562 15.316406 16.765625 C 15.242188 16.8125 15.199219 16.726562 15.199219 16.574219 C 15.199219 16.4375 15.265625 16.285156 15.363281 16.25 C 15.457031 16.210938 15.5 16.085938 15.46875 15.949219 C 15.417969 15.757812 15.375 15.734375 15.199219 15.847656 C 15.078125 15.933594 15.007812 16.058594 15.046875 16.148438 C 15.066406 16.222656 14.925781 16.8125 14.726562 17.453125 C 14.523438 18.09375 14.183594 19.300781 13.960938 20.140625 C 13.722656 20.96875 13.523438 21.722656 13.492188 21.8125 C 13.453125 21.925781 14.417969 21.960938 17.679688 21.976562 L 21.933594 21.976562 L 21.863281 21.109375 C 21.824219 20.632812 21.851562 20.054688 21.90625 19.828125 C 22.050781 19.3125 21.957031 19.1875 21.6875 19.550781 C 21.472656 19.816406 21.472656 19.800781 21.484375 18.949219 C 21.496094 18.472656 21.542969 18.082031 21.613281 18.082031 C 21.6875 18.082031 21.660156 18.03125 21.566406 17.96875 C 21.472656 17.90625 21.425781 17.742188 21.472656 17.578125 C 21.53125 17.339844 21.339844 17.203125 19.53125 16.25 C 18.421875 15.671875 17.398438 15.195312 17.257812 15.195312 C 17.113281 15.195312 16.855469 15.082031 16.703125 14.941406 C 16.539062 14.816406 16.375 14.730469 16.351562 14.765625 Z M 15.230469 17.328125 C 15.265625 17.46875 15.242188 17.554688 15.183594 17.503906 C 15.128906 17.46875 15.078125 17.355469 15.078125 17.253906 C 15.078125 17.003906 15.160156 17.039062 15.230469 17.328125 Z M 17.882812 17.515625 C 17.855469 17.71875 17.789062 17.832031 17.648438 17.832031 C 17.503906 17.832031 17.460938 17.769531 17.515625 17.605469 C 17.585938 17.429688 17.773438 17.214844 17.871094 17.203125 C 17.894531 17.203125 17.894531 17.339844 17.882812 17.515625 Z M 17.113281 17.667969 C 17.03125 17.691406 16.894531 17.691406 16.824219 17.667969 C 16.742188 17.628906 16.796875 17.605469 16.960938 17.605469 C 17.125 17.605469 17.1875 17.628906 17.113281 17.667969 Z M 20.34375 18.632812 C 20.320312 18.886719 20.34375 19.085938 20.390625 19.085938 C 20.4375 19.085938 20.414062 19.226562 20.34375 19.402344 C 20.261719 19.578125 20.167969 19.714844 20.117188 19.714844 C 20.046875 19.714844 20.074219 18.570312 20.144531 17.832031 C 20.144531 17.792969 20.199219 17.855469 20.261719 17.96875 C 20.320312 18.082031 20.351562 18.382812 20.34375 18.632812 Z M 19.222656 18.371094 C 19.167969 18.457031 19.105469 18.609375 19.09375 18.710938 C 19.09375 18.808594 19.035156 19.148438 18.988281 19.464844 C 18.90625 19.890625 18.859375 19.976562 18.800781 19.800781 C 18.636719 19.414062 18.988281 18.007812 19.222656 18.15625 C 19.28125 18.207031 19.28125 18.296875 19.222656 18.371094 Z M 17.90625 18.699219 C 17.90625 18.910156 17.855469 19.113281 17.789062 19.148438 C 17.730469 19.1875 17.667969 19.113281 17.667969 18.972656 C 17.667969 18.796875 17.597656 18.710938 17.460938 18.710938 C 17.339844 18.710938 17.234375 18.621094 17.234375 18.523438 C 17.234375 18.394531 17.351562 18.332031 17.574219 18.332031 C 17.855469 18.332031 17.90625 18.382812 17.90625 18.699219 Z M 18.046875 19.964844 C 18.082031 20.21875 18.046875 20.34375 17.9375 20.34375 C 17.789062 20.34375 17.730469 19.828125 17.871094 19.675781 C 17.988281 19.550781 17.988281 19.5625 18.046875 19.964844 Z M 14.726562 20.230469 C 14.726562 20.304688 14.679688 20.316406 14.605469 20.28125 C 14.550781 20.242188 14.492188 20.140625 14.492188 20.078125 C 14.492188 20.003906 14.550781 19.992188 14.605469 20.027344 C 14.679688 20.066406 14.726562 20.167969 14.726562 20.230469 Z M 20.144531 20.152344 C 20.144531 20.253906 20.09375 20.34375 20.023438 20.34375 C 19.964844 20.34375 19.941406 20.253906 19.980469 20.152344 C 20.023438 20.054688 20.074219 19.964844 20.09375 19.964844 C 20.117188 19.964844 20.144531 20.054688 20.144531 20.152344 Z M 14.84375 20.96875 C 14.84375 21.046875 14.738281 21.03125 14.605469 20.945312 C 14.480469 20.855469 14.371094 20.746094 14.371094 20.679688 C 14.371094 20.632812 14.480469 20.644531 14.605469 20.71875 C 14.738281 20.792969 14.84375 20.90625 14.84375 20.96875 Z M 18.191406 20.792969 C 18.246094 20.96875 18.234375 20.984375 18.082031 20.84375 C 17.882812 20.667969 17.855469 20.59375 18.011719 20.59375 C 18.070312 20.59375 18.152344 20.679688 18.191406 20.792969 Z M 18.964844 21.285156 C 18.964844 21.382812 18.917969 21.472656 18.847656 21.472656 C 18.789062 21.472656 18.730469 21.382812 18.730469 21.285156 C 18.730469 21.183594 18.789062 21.097656 18.847656 21.097656 C 18.917969 21.097656 18.964844 21.183594 18.964844 21.285156 Z M 14.890625 21.609375 C 14.855469 21.671875 14.773438 21.699219 14.714844 21.648438 C 14.65625 21.609375 14.632812 21.523438 14.679688 21.460938 C 14.714844 21.398438 14.796875 21.371094 14.855469 21.421875 C 14.914062 21.460938 14.9375 21.546875 14.890625 21.609375 Z M 14.890625 21.609375 "/>
</g>
</svg>
