<?xml version="1.0" encoding="UTF-8"?>
<svg xmlns="http://www.w3.org/2000/svg" xmlns:xlink="http://www.w3.org/1999/xlink" width="24px" height="34px" viewBox="0 0 24 33" version="1.1">
<g id="surface1">
<path style=" stroke:none;fill-rule:nonzero;fill:rgb(0%,0%,0%);fill-opacity:1;" d="M 11.03125 0.746094 C 10.675781 0.820312 10.664062 0.832031 10.941406 0.917969 C 11.09375 0.964844 11.21875 1.078125 11.21875 1.175781 C 11.21875 1.273438 11.144531 1.3125 11.003906 1.261719 C 10.867188 1.210938 10.828125 1.222656 10.890625 1.324219 C 10.941406 1.410156 10.917969 1.46875 10.851562 1.46875 C 10.777344 1.46875 10.714844 1.359375 10.714844 1.222656 C 10.714844 1.089844 10.640625 0.980469 10.550781 0.980469 C 10.3125 0.980469 9.578125 1.347656 9.578125 1.46875 C 9.578125 1.519531 9.378906 1.605469 9.125 1.65625 C 8.496094 1.765625 8.054688 1.976562 8.15625 2.121094 C 8.207031 2.195312 8.15625 2.222656 8.03125 2.171875 C 7.902344 2.121094 7.816406 2.160156 7.816406 2.234375 C 7.816406 2.308594 7.777344 2.332031 7.726562 2.292969 C 7.6875 2.246094 7.574219 2.269531 7.476562 2.355469 C 7.386719 2.429688 7.273438 2.453125 7.222656 2.417969 C 7.183594 2.367188 7.285156 2.222656 7.449219 2.085938 C 7.714844 1.875 7.714844 1.851562 7.5 1.925781 C 7.359375 1.964844 7.082031 2.109375 6.882812 2.246094 C 6.605469 2.441406 6.503906 2.453125 6.429688 2.332031 C 6.367188 2.234375 6.238281 2.207031 6.101562 2.269531 C 5.875 2.355469 5.886719 2.367188 6.152344 2.492188 C 6.464844 2.625 6.515625 2.824219 6.238281 2.824219 C 5.976562 2.824219 5.683594 3.574219 5.621094 4.410156 C 5.582031 4.792969 5.535156 5.183594 5.496094 5.285156 C 5.34375 5.675781 5.320312 6.144531 5.433594 6.21875 C 5.496094 6.253906 5.546875 6.242188 5.535156 6.179688 C 5.46875 5.945312 5.847656 4.902344 6.1875 4.300781 C 6.503906 3.78125 6.566406 3.488281 6.441406 3.289062 C 6.339844 3.144531 6.367188 3.070312 6.503906 3.019531 C 6.617188 2.984375 6.757812 2.972656 6.820312 3.019531 C 6.882812 3.058594 6.933594 3.007812 6.933594 2.921875 C 6.933594 2.800781 6.957031 2.800781 7.046875 2.933594 C 7.132812 3.070312 7.171875 3.070312 7.261719 2.933594 C 7.324219 2.835938 7.375 2.710938 7.375 2.652344 C 7.375 2.589844 7.449219 2.515625 7.550781 2.480469 C 7.652344 2.441406 7.6875 2.480469 7.640625 2.566406 C 7.5 2.773438 7.703125 2.726562 7.980469 2.480469 C 8.21875 2.28125 8.21875 2.28125 8.128906 2.578125 C 8.078125 2.75 7.992188 2.898438 7.941406 2.921875 C 7.804688 2.972656 7.953125 3.597656 8.167969 3.832031 C 8.269531 3.953125 8.484375 4.054688 8.648438 4.054688 C 8.796875 4.054688 9.101562 4.152344 9.304688 4.261719 C 9.667969 4.472656 9.691406 4.472656 9.933594 4.261719 C 10.058594 4.152344 10.246094 4.054688 10.347656 4.054688 C 10.5 4.054688 10.5 4.078125 10.347656 4.164062 C 10.246094 4.226562 10.210938 4.359375 10.273438 4.53125 C 10.347656 4.792969 10.375 4.792969 10.652344 4.621094 C 10.839844 4.496094 11.09375 4.460938 11.382812 4.507812 C 11.671875 4.546875 11.925781 4.507812 12.140625 4.359375 C 12.367188 4.226562 12.691406 4.164062 13.195312 4.175781 C 13.601562 4.1875 14.117188 4.203125 14.34375 4.214844 C 14.558594 4.214844 14.746094 4.273438 14.746094 4.335938 C 14.746094 4.398438 14.835938 4.410156 14.949219 4.375 C 15.238281 4.261719 15.996094 4.777344 16.082031 5.136719 C 16.132812 5.285156 16.097656 5.480469 16.035156 5.566406 C 15.945312 5.664062 15.945312 5.789062 16.007812 5.898438 C 16.082031 6.023438 16.046875 6.21875 15.871094 6.488281 C 15.742188 6.722656 15.65625 6.945312 15.691406 7.003906 C 15.730469 7.066406 15.679688 7.140625 15.605469 7.164062 C 15.480469 7.214844 15.480469 7.265625 15.617188 7.347656 C 15.707031 7.410156 15.757812 7.546875 15.730469 7.632812 C 15.691406 7.730469 15.71875 7.941406 15.792969 8.113281 C 15.855469 8.285156 15.933594 8.566406 15.957031 8.75 C 15.984375 8.9375 16.109375 9.195312 16.246094 9.328125 C 16.398438 9.476562 16.476562 9.6875 16.449219 9.859375 C 16.398438 10.105469 16.425781 10.117188 16.550781 9.957031 C 16.640625 9.847656 16.804688 9.785156 16.929688 9.808594 C 17.09375 9.847656 17.144531 9.773438 17.144531 9.539062 C 17.144531 9.367188 17.191406 9.21875 17.242188 9.21875 C 17.457031 9.21875 17.796875 8.433594 17.796875 7.964844 C 17.785156 7.695312 17.898438 7.128906 18.023438 6.710938 C 18.164062 6.304688 18.277344 5.75 18.277344 5.492188 C 18.277344 5.234375 18.351562 4.949219 18.441406 4.851562 C 18.542969 4.765625 18.628906 4.375 18.644531 3.953125 C 18.667969 3.328125 18.628906 3.179688 18.390625 2.960938 C 18.226562 2.8125 18.039062 2.699219 17.949219 2.699219 C 17.859375 2.699219 17.609375 2.539062 17.371094 2.332031 C 16.851562 1.886719 15.59375 1.222656 15.265625 1.222656 C 15.140625 1.222656 14.621094 1.089844 14.117188 0.929688 C 13.246094 0.660156 12.65625 0.632812 12.808594 0.867188 C 12.84375 0.929688 12.679688 0.964844 12.453125 0.953125 C 12.226562 0.941406 11.9375 0.980469 11.824219 1.027344 C 11.660156 1.101562 11.597656 1.078125 11.597656 0.941406 C 11.597656 0.683594 11.46875 0.632812 11.03125 0.746094 Z M 13.488281 1.101562 C 13.640625 1.199219 13.625 1.222656 13.398438 1.222656 C 13.234375 1.222656 13.109375 1.164062 13.109375 1.101562 C 13.109375 0.941406 13.246094 0.941406 13.488281 1.101562 Z M 11.898438 1.789062 C 11.9375 1.886719 11.898438 1.925781 11.773438 1.875 C 11.671875 1.839844 11.484375 1.902344 11.355469 2.011719 C 11.167969 2.171875 11.105469 2.183594 11.066406 2.0625 C 11.03125 1.976562 11.03125 1.839844 11.054688 1.765625 C 11.117188 1.582031 11.824219 1.605469 11.898438 1.789062 Z M 12.175781 2.234375 C 11.988281 2.355469 11.976562 2.308594 12.0625 1.964844 C 12.140625 1.691406 12.152344 1.691406 12.226562 1.914062 C 12.277344 2.035156 12.253906 2.183594 12.175781 2.234375 Z M 12.984375 2.160156 C 12.984375 2.183594 12.871094 2.207031 12.730469 2.207031 C 12.59375 2.207031 12.480469 2.160156 12.480469 2.097656 C 12.480469 2.035156 12.59375 2.011719 12.730469 2.046875 C 12.871094 2.085938 12.984375 2.136719 12.984375 2.160156 Z M 12.164062 3.808594 C 12.203125 3.867188 12.175781 3.929688 12.113281 3.929688 C 12.039062 3.929688 11.976562 3.867188 11.976562 3.808594 C 11.976562 3.734375 12 3.683594 12.023438 3.683594 C 12.0625 3.683594 12.125 3.734375 12.164062 3.808594 Z M 12.164062 3.808594 "/>
<path style=" stroke:none;fill-rule:nonzero;fill:rgb(0%,0%,0%);fill-opacity:1;" d="M 5.332031 6.660156 C 5.371094 6.859375 5.34375 7.003906 5.292969 7.003906 C 5.257812 7.003906 5.242188 7.1875 5.28125 7.398438 L 5.34375 7.804688 L 5.433594 7.3125 C 5.484375 7.042969 5.46875 6.710938 5.40625 6.574219 C 5.308594 6.367188 5.292969 6.378906 5.332031 6.660156 Z M 5.332031 6.660156 "/>
<path style=" stroke:none;fill-rule:nonzero;fill:rgb(0%,0%,0%);fill-opacity:1;" d="M 5.433594 8.0625 C 5.433594 8.199219 5.46875 8.234375 5.507812 8.136719 C 5.546875 8.050781 5.535156 7.941406 5.496094 7.902344 C 5.457031 7.855469 5.421875 7.925781 5.433594 8.0625 Z M 5.433594 8.0625 "/>
<path style=" stroke:none;fill-rule:nonzero;fill:rgb(0%,0%,0%);fill-opacity:1;" d="M 17.710938 9.28125 C 17.457031 9.648438 17.207031 9.957031 17.144531 9.957031 C 17.066406 9.957031 17.015625 10.019531 17.015625 10.09375 C 17.015625 10.152344 17.066406 10.191406 17.128906 10.152344 C 17.191406 10.105469 17.21875 10.191406 17.179688 10.339844 C 17.117188 10.570312 17.128906 10.585938 17.382812 10.4375 C 17.519531 10.339844 17.660156 10.214844 17.671875 10.140625 C 17.671875 10.078125 17.695312 9.957031 17.695312 9.894531 C 17.746094 9.636719 18.023438 9.242188 18.238281 9.167969 C 18.417969 9.097656 18.441406 9.109375 18.316406 9.230469 C 18.089844 9.453125 18.113281 9.585938 18.378906 9.585938 C 18.578125 9.585938 18.628906 9.355469 18.542969 8.726562 C 18.503906 8.40625 18.101562 8.664062 17.710938 9.28125 Z M 17.710938 9.28125 "/>
<path style=" stroke:none;fill-rule:nonzero;fill:rgb(0%,0%,0%);fill-opacity:1;" d="M 6.203125 9.007812 C 5.9375 9.121094 5.910156 9.207031 5.960938 9.675781 C 6.011719 10.226562 6.113281 10.425781 6.265625 10.277344 C 6.316406 10.226562 6.289062 10.140625 6.1875 10.09375 C 5.988281 9.96875 5.988281 9.820312 6.203125 9.699219 C 6.503906 9.503906 6.566406 9.585938 6.503906 10.078125 C 6.441406 10.632812 6.515625 10.671875 6.957031 10.339844 C 7.261719 10.105469 7.261719 10.105469 7.410156 10.339844 C 7.613281 10.644531 7.890625 10.632812 8.066406 10.3125 C 8.167969 10.140625 8.28125 10.09375 8.421875 10.140625 C 8.535156 10.191406 8.785156 10.25 8.960938 10.277344 C 9.277344 10.3125 9.289062 10.300781 9.152344 9.894531 C 9.074219 9.660156 8.976562 9.464844 8.925781 9.464844 C 8.875 9.464844 8.683594 9.402344 8.484375 9.316406 C 8.117188 9.183594 8.066406 9.15625 7.3125 9.035156 C 7.070312 8.996094 6.78125 8.9375 6.679688 8.910156 C 6.578125 8.886719 6.367188 8.9375 6.203125 9.007812 Z M 7.4375 9.402344 C 7.4375 9.503906 7.539062 9.585938 7.664062 9.601562 C 7.828125 9.601562 7.828125 9.625 7.601562 9.710938 C 7.460938 9.773438 7.222656 9.785156 7.082031 9.75 C 6.84375 9.6875 6.84375 9.675781 7.035156 9.464844 C 7.296875 9.183594 7.4375 9.15625 7.4375 9.402344 Z M 7.4375 9.402344 "/>
<path style=" stroke:none;fill-rule:nonzero;fill:rgb(0%,0%,0%);fill-opacity:1;" d="M 11.128906 9.121094 C 10.839844 9.183594 10.550781 9.304688 10.460938 9.402344 C 10.261719 9.636719 10.488281 10.019531 10.851562 10.042969 C 11.003906 10.054688 11.179688 10.140625 11.230469 10.226562 C 11.308594 10.339844 11.382812 10.328125 11.570312 10.167969 C 11.886719 9.894531 12.050781 9.894531 12.140625 10.203125 C 12.226562 10.535156 12.707031 10.523438 12.84375 10.191406 C 12.933594 9.921875 12.945312 9.933594 13.273438 10.277344 L 13.601562 10.621094 L 13.714844 10.3125 C 13.777344 10.152344 13.816406 9.980469 13.789062 9.945312 C 13.765625 9.894531 13.410156 9.796875 12.996094 9.699219 C 12.453125 9.585938 12.277344 9.503906 12.351562 9.402344 C 12.429688 9.316406 12.441406 9.21875 12.390625 9.183594 C 12.351562 9.132812 12.378906 9.097656 12.453125 9.097656 C 12.515625 9.097656 12.605469 9.15625 12.628906 9.21875 C 12.65625 9.292969 12.894531 9.367188 13.171875 9.402344 C 13.449219 9.429688 13.804688 9.476562 13.964844 9.515625 C 14.371094 9.601562 14.332031 9.242188 13.902344 9.085938 C 13.488281 8.9375 12.074219 8.984375 11.949219 9.15625 C 11.886719 9.242188 11.8125 9.230469 11.761719 9.144531 C 11.695312 9.058594 11.484375 9.058594 11.128906 9.121094 Z M 11.128906 9.121094 "/>
<path style=" stroke:none;fill-rule:nonzero;fill:rgb(0%,0%,0%);fill-opacity:1;" d="M 16.777344 10.152344 C 16.777344 10.289062 16.816406 10.328125 16.851562 10.226562 C 16.890625 10.140625 16.878906 10.03125 16.839844 9.992188 C 16.804688 9.945312 16.765625 10.019531 16.777344 10.152344 Z M 16.777344 10.152344 "/>
<path style=" stroke:none;fill-rule:nonzero;fill:rgb(0%,0%,0%);fill-opacity:1;" d="M 18.289062 10.277344 C 18.289062 10.410156 18.328125 10.449219 18.367188 10.351562 C 18.402344 10.265625 18.390625 10.152344 18.351562 10.117188 C 18.316406 10.066406 18.277344 10.140625 18.289062 10.277344 Z M 18.289062 10.277344 "/>
<path style=" stroke:none;fill-rule:nonzero;fill:rgb(0%,0%,0%);fill-opacity:1;" d="M 16.640625 10.683594 C 16.640625 10.757812 16.703125 10.84375 16.765625 10.878906 C 16.839844 10.917969 16.890625 10.867188 16.890625 10.769531 C 16.890625 10.65625 16.839844 10.570312 16.765625 10.570312 C 16.703125 10.570312 16.640625 10.621094 16.640625 10.683594 Z M 16.640625 10.683594 "/>
<path style=" stroke:none;fill-rule:nonzero;fill:rgb(0%,0%,0%);fill-opacity:1;" d="M 18.152344 11.074219 C 18.152344 11.136719 18.214844 11.164062 18.277344 11.125 C 18.351562 11.089844 18.402344 11.027344 18.402344 10.988281 C 18.402344 10.964844 18.351562 10.941406 18.277344 10.941406 C 18.214844 10.941406 18.152344 11.003906 18.152344 11.074219 Z M 18.152344 11.074219 "/>
<path style=" stroke:none;fill-rule:nonzero;fill:rgb(0%,0%,0%);fill-opacity:1;" d="M 16.449219 11.1875 C 16.410156 11.246094 16.296875 11.273438 16.210938 11.234375 C 15.855469 11.101562 15.316406 13.757812 15.65625 13.964844 C 15.707031 14.003906 15.691406 14.175781 15.617188 14.359375 C 15.542969 14.542969 15.503906 14.714844 15.515625 14.753906 C 15.542969 14.789062 15.390625 14.839844 15.1875 14.875 C 14.875 14.925781 14.796875 15.011719 14.710938 15.453125 C 14.632812 15.859375 14.535156 16.007812 14.230469 16.128906 C 14.03125 16.21875 13.890625 16.351562 13.917969 16.4375 C 13.953125 16.511719 13.902344 16.648438 13.804688 16.722656 C 13.6875 16.820312 13.625 16.820312 13.589844 16.722656 C 13.5625 16.636719 13.425781 16.683594 13.234375 16.84375 C 13.007812 17.042969 12.96875 17.128906 13.097656 17.199219 C 13.222656 17.273438 13.210938 17.324219 13.035156 17.386719 C 12.90625 17.433594 12.769531 17.398438 12.707031 17.3125 C 12.628906 17.199219 12.617188 17.25 12.667969 17.421875 C 12.730469 17.667969 12.691406 17.707031 12.429688 17.707031 C 12.253906 17.707031 12.074219 17.644531 12.039062 17.582031 C 11.886719 17.347656 11.695312 17.460938 11.773438 17.742188 C 11.824219 17.976562 11.773438 18.039062 11.40625 18.148438 C 11.09375 18.246094 10.953125 18.246094 10.902344 18.148438 C 10.867188 18.050781 10.816406 18.0625 10.765625 18.160156 C 10.6875 18.332031 10.210938 18.382812 10.210938 18.222656 C 10.210938 18.171875 9.96875 18.113281 9.679688 18.085938 C 9.378906 18.074219 9.039062 18.050781 8.925781 18.039062 C 8.796875 18.023438 8.695312 17.976562 8.695312 17.914062 C 8.695312 17.851562 8.621094 17.828125 8.535156 17.867188 C 8.421875 17.902344 8.292969 17.777344 8.191406 17.507812 C 8.09375 17.273438 7.980469 17.089844 7.929688 17.089844 C 7.878906 17.089844 7.726562 17.054688 7.601562 17.003906 C 7.4375 16.953125 7.488281 17.042969 7.753906 17.324219 C 8.191406 17.792969 8.207031 17.765625 6.757812 18.257812 C 5.8125 18.566406 5.671875 18.652344 5.671875 18.898438 C 5.671875 19.058594 5.609375 19.179688 5.535156 19.179688 C 5.457031 19.179688 5.421875 19.09375 5.46875 18.996094 C 5.519531 18.875 5.457031 18.8125 5.28125 18.8125 C 5.144531 18.8125 5.054688 18.863281 5.09375 18.910156 C 5.167969 19.035156 4.765625 19.242188 4.324219 19.339844 C 4.160156 19.378906 4.035156 19.351562 4.035156 19.28125 C 4.035156 19.144531 3.503906 19.28125 3.390625 19.464844 C 3.339844 19.527344 3.253906 19.550781 3.175781 19.5 C 3.039062 19.414062 2.859375 19.757812 2.960938 19.917969 C 3 19.980469 2.976562 20.054688 2.898438 20.105469 C 2.835938 20.140625 2.773438 20.066406 2.773438 19.933594 C 2.773438 19.585938 2.660156 19.609375 2.03125 20.054688 C 1.6875 20.3125 1.523438 20.507812 1.574219 20.632812 C 1.625 20.78125 1.589844 20.78125 1.324219 20.609375 C 1.035156 20.421875 0.996094 20.421875 0.933594 20.59375 C 0.882812 20.707031 0.78125 20.769531 0.691406 20.730469 C 0.59375 20.695312 0.402344 20.769531 0.265625 20.890625 C 0.0507812 21.074219 0 21.246094 0.0117188 21.753906 C 0.0234375 22.097656 0.0898438 22.378906 0.152344 22.378906 C 0.203125 22.378906 0.253906 22.441406 0.253906 22.515625 C 0.253906 22.574219 0.203125 22.613281 0.140625 22.5625 C 0.0625 22.527344 0.0117188 23.683594 0 25.625 C 0 28.035156 0.0390625 28.761719 0.152344 28.8125 C 0.277344 28.859375 0.277344 28.886719 0.140625 28.886719 C 0 28.898438 0 28.933594 0.125 29.082031 C 0.238281 29.203125 0.238281 29.265625 0.140625 29.265625 C 0.0390625 29.265625 0 29.808594 0 31.050781 L 0 32.832031 L 23.949219 32.832031 L 23.949219 19.328125 L 23.609375 19.207031 C 22.183594 18.703125 21.566406 18.441406 20.308594 17.867188 C 18.554688 17.066406 18.125 16.769531 17.558594 15.898438 C 17.320312 15.527344 17.105469 15.246094 17.078125 15.269531 C 17.042969 15.292969 17.105469 15.613281 17.207031 15.972656 C 17.292969 16.328125 17.355469 16.683594 17.332031 16.757812 C 17.308594 16.84375 17.257812 17.1875 17.230469 17.53125 C 17.191406 17.878906 17.054688 18.40625 16.902344 18.726562 C 16.753906 19.035156 16.640625 19.339844 16.640625 19.402344 C 16.640625 19.464844 16.410156 20.054688 16.132812 20.730469 C 15.855469 21.394531 15.65625 22.011719 15.679688 22.097656 C 15.71875 22.183594 15.691406 22.253906 15.628906 22.253906 C 15.554688 22.253906 15.503906 22.367188 15.503906 22.5 C 15.503906 22.636719 15.453125 22.75 15.378906 22.75 C 15.226562 22.75 14.859375 23.941406 14.960938 24.164062 C 15 24.261719 14.976562 24.347656 14.898438 24.347656 C 14.761719 24.347656 14.445312 25.5625 14.546875 25.675781 C 14.582031 25.699219 14.535156 25.8125 14.433594 25.894531 C 14.332031 25.996094 14.21875 26.3125 14.167969 26.621094 C 14.128906 26.929688 14.054688 27.175781 14.003906 27.175781 C 13.953125 27.175781 13.839844 26.917969 13.753906 26.585938 C 13.652344 26.265625 13.335938 25.503906 13.046875 24.898438 C 12.175781 23.105469 12.140625 22.808594 12.742188 22.183594 C 12.96875 21.949219 12.96875 21.898438 12.78125 21.273438 C 12.667969 20.914062 12.492188 20.484375 12.390625 20.324219 C 12.277344 20.164062 12.214844 20.015625 12.238281 19.992188 C 12.265625 19.96875 12.707031 19.746094 13.222656 19.488281 C 13.726562 19.21875 14.496094 18.691406 14.910156 18.308594 C 15.578125 17.679688 15.65625 17.570312 15.578125 17.261719 C 15.492188 16.953125 15.503906 16.941406 15.707031 17.101562 C 15.90625 17.25 15.921875 17.25 15.84375 17.054688 C 15.792969 16.90625 15.832031 16.84375 15.984375 16.84375 C 16.148438 16.84375 16.160156 16.820312 16.035156 16.746094 C 15.933594 16.683594 15.90625 16.546875 15.957031 16.414062 C 16.035156 16.230469 16.007812 16.203125 15.832031 16.265625 C 15.707031 16.316406 15.644531 16.304688 15.691406 16.230469 C 15.742188 16.15625 15.871094 16.117188 15.984375 16.128906 C 16.097656 16.15625 16.210938 16.082031 16.210938 15.984375 C 16.222656 15.886719 16.234375 15.738281 16.246094 15.652344 C 16.246094 15.566406 16.347656 15.527344 16.449219 15.566406 C 16.675781 15.652344 16.675781 15.578125 16.640625 14.175781 C 16.601562 12.910156 16.6875 12.664062 17.117188 12.648438 L 17.457031 12.636719 L 17.144531 12.550781 C 16.964844 12.503906 16.839844 12.378906 16.867188 12.292969 C 16.890625 12.207031 16.917969 11.972656 16.929688 11.789062 C 16.941406 11.59375 17.042969 11.410156 17.144531 11.371094 C 17.308594 11.308594 17.308594 11.285156 17.144531 11.1875 C 16.902344 11.027344 16.550781 11.027344 16.449219 11.1875 Z M 16.386719 11.554688 C 16.386719 11.617188 16.359375 11.679688 16.335938 11.679688 C 16.296875 11.679688 16.234375 11.617188 16.195312 11.554688 C 16.160156 11.480469 16.183594 11.433594 16.246094 11.433594 C 16.324219 11.433594 16.386719 11.480469 16.386719 11.554688 Z M 16.765625 11.972656 C 16.765625 12.011719 16.589844 12.160156 16.359375 12.304688 C 15.996094 12.566406 15.984375 12.464844 16.324219 12.085938 C 16.4375 11.9375 16.765625 11.863281 16.765625 11.972656 Z M 16.640625 12.539062 C 16.640625 12.601562 16.613281 12.664062 16.589844 12.664062 C 16.550781 12.664062 16.488281 12.601562 16.449219 12.539062 C 16.410156 12.464844 16.4375 12.417969 16.5 12.417969 C 16.574219 12.417969 16.640625 12.464844 16.640625 12.539062 Z M 16.449219 12.796875 C 16.589844 13.007812 16.4375 13.054688 16.261719 12.847656 C 16.160156 12.738281 16.160156 12.664062 16.234375 12.664062 C 16.3125 12.664062 16.410156 12.722656 16.449219 12.796875 Z M 16.007812 12.957031 C 16.007812 12.996094 15.957031 13.054688 15.882812 13.09375 C 15.820312 13.128906 15.757812 13.105469 15.757812 13.042969 C 15.757812 12.96875 15.820312 12.910156 15.882812 12.910156 C 15.957031 12.910156 16.007812 12.933594 16.007812 12.957031 Z M 16.007812 13.769531 C 16.007812 13.832031 15.957031 13.890625 15.882812 13.890625 C 15.820312 13.890625 15.757812 13.832031 15.757812 13.769531 C 15.757812 13.695312 15.820312 13.648438 15.882812 13.648438 C 15.957031 13.648438 16.007812 13.695312 16.007812 13.769531 Z M 16.324219 14.261719 C 16.285156 14.324219 16.148438 14.386719 16.035156 14.386719 C 15.84375 14.386719 15.84375 14.359375 16.007812 14.261719 C 16.261719 14.101562 16.425781 14.101562 16.324219 14.261719 Z M 9.464844 18.652344 C 9.757812 18.972656 10.261719 19.378906 10.828125 19.746094 L 11.34375 20.066406 L 11.03125 20.433594 C 10.652344 20.867188 10.640625 20.976562 10.941406 21.136719 C 11.066406 21.222656 11.105469 21.308594 11.03125 21.359375 C 10.964844 21.417969 10.902344 21.765625 10.890625 22.132812 C 10.878906 23.117188 10.789062 23.71875 10.6875 23.644531 C 10.5625 23.570312 10.574219 24.335938 10.703125 24.652344 C 10.828125 24.960938 10.664062 25.6875 10.273438 26.523438 C 10.097656 26.878906 9.957031 27.359375 9.945312 27.582031 C 9.933594 27.800781 9.894531 28.109375 9.84375 28.28125 L 9.757812 28.589844 L 9.65625 28.234375 C 9.605469 28.035156 9.515625 27.015625 9.453125 25.96875 L 9.339844 24.050781 L 9.71875 23.558594 C 10.183594 22.945312 10.183594 22.761719 9.742188 23.179688 C 9.542969 23.363281 9.289062 23.558594 9.152344 23.632812 C 8.9375 23.742188 8.925781 23.71875 9 23.351562 C 9.125 22.699219 9.316406 20.238281 9.238281 20.128906 C 9.175781 20.03125 8.835938 18.714844 8.824219 18.53125 C 8.824219 18.355469 9.277344 18.441406 9.464844 18.652344 Z M 2.40625 20.621094 C 2.292969 20.816406 2.28125 20.816406 2.269531 20.632812 C 2.269531 20.523438 2.308594 20.324219 2.355469 20.203125 C 2.445312 20.003906 2.457031 19.992188 2.496094 20.191406 C 2.519531 20.3125 2.484375 20.496094 2.40625 20.621094 Z M 1.386719 20.828125 C 1.386719 20.855469 1.273438 20.902344 1.132812 20.941406 C 0.996094 20.976562 0.90625 20.953125 0.957031 20.890625 C 1.019531 20.78125 1.386719 20.730469 1.386719 20.828125 Z M 0.78125 21.765625 C 0.628906 21.910156 0.503906 21.984375 0.503906 21.9375 C 0.503906 21.789062 0.921875 21.382812 0.984375 21.457031 C 1.019531 21.492188 0.933594 21.628906 0.78125 21.765625 Z M 1.664062 21.925781 C 1.476562 22.011719 1.335938 22.011719 1.246094 21.925781 C 1.160156 21.835938 1.261719 21.800781 1.539062 21.800781 C 1.929688 21.789062 1.941406 21.800781 1.664062 21.925781 Z M 3.84375 22.011719 C 3.882812 22.070312 3.855469 22.132812 3.792969 22.132812 C 3.71875 22.132812 3.65625 22.070312 3.65625 22.011719 C 3.65625 21.9375 3.679688 21.886719 3.707031 21.886719 C 3.742188 21.886719 3.808594 21.9375 3.84375 22.011719 Z M 1.132812 22.132812 C 1.132812 22.195312 1.070312 22.253906 0.996094 22.253906 C 0.933594 22.253906 0.90625 22.195312 0.945312 22.132812 C 0.984375 22.058594 1.046875 22.011719 1.082031 22.011719 C 1.109375 22.011719 1.132812 22.058594 1.132812 22.132812 Z M 1.890625 22.230469 C 1.890625 22.378906 1.398438 22.871094 1.246094 22.871094 C 1.171875 22.871094 1.132812 22.796875 1.171875 22.710938 C 1.195312 22.636719 1.296875 22.574219 1.386719 22.601562 C 1.460938 22.613281 1.5625 22.515625 1.601562 22.378906 C 1.664062 22.144531 1.890625 22.023438 1.890625 22.230469 Z M 2.28125 22.660156 C 2.15625 22.773438 2.144531 22.761719 2.21875 22.589844 C 2.257812 22.464844 2.332031 22.402344 2.371094 22.441406 C 2.40625 22.476562 2.371094 22.574219 2.28125 22.660156 Z M 5.230469 22.75 C 5.269531 22.820312 5.21875 22.832031 5.117188 22.796875 C 4.890625 22.710938 4.851562 22.625 5.03125 22.625 C 5.105469 22.625 5.191406 22.671875 5.230469 22.75 Z M 2.898438 22.859375 C 2.898438 22.933594 2.847656 23.007812 2.796875 23.042969 C 2.734375 23.078125 2.683594 23.03125 2.683594 22.933594 C 2.683594 22.832031 2.734375 22.75 2.796875 22.75 C 2.847656 22.75 2.898438 22.796875 2.898438 22.859375 Z M 1.941406 23.300781 C 1.980469 23.398438 1.953125 23.484375 1.890625 23.484375 C 1.816406 23.484375 1.765625 23.398438 1.765625 23.300781 C 1.765625 23.203125 1.789062 23.117188 1.816406 23.117188 C 1.839844 23.117188 1.890625 23.203125 1.941406 23.300781 Z M 1.511719 23.929688 C 1.511719 23.976562 1.449219 23.964844 1.359375 23.878906 C 1.160156 23.683594 1.007812 23.695312 1.007812 23.914062 C 1.007812 24.015625 1.097656 24.101562 1.195312 24.101562 C 1.296875 24.101562 1.386719 24.148438 1.386719 24.222656 C 1.386719 24.46875 0.957031 24.285156 0.871094 24.015625 C 0.832031 23.890625 0.742188 23.890625 0.480469 24.039062 C 0.277344 24.125 0.125 24.148438 0.125 24.089844 C 0.125 24.027344 0.265625 23.914062 0.429688 23.855469 C 0.59375 23.792969 0.769531 23.632812 0.820312 23.496094 C 0.894531 23.265625 0.894531 23.265625 1.195312 23.535156 C 1.375 23.695312 1.511719 23.867188 1.511719 23.929688 Z M 2.835938 23.867188 C 3.023438 24.039062 2.746094 23.992188 2.394531 23.78125 L 2.078125 23.597656 L 2.394531 23.683594 C 2.570312 23.71875 2.761719 23.804688 2.835938 23.867188 Z M 5.507812 24.296875 C 5.46875 24.335938 5.355469 24.347656 5.269531 24.308594 C 5.167969 24.273438 5.207031 24.234375 5.34375 24.234375 C 5.484375 24.222656 5.558594 24.261719 5.507812 24.296875 Z M 15.125 24.519531 C 15.125 24.542969 15.023438 24.640625 14.910156 24.726562 C 14.710938 24.886719 14.695312 24.875 14.859375 24.679688 C 15.023438 24.480469 15.125 24.421875 15.125 24.519531 Z M 4.335938 25.636719 C 4.246094 25.847656 4.082031 25.882812 3.984375 25.710938 C 3.894531 25.589844 4.019531 25.453125 4.234375 25.453125 C 4.335938 25.453125 4.375 25.527344 4.335938 25.636719 Z M 6.125 26.019531 C 6.050781 26.09375 5.960938 26.117188 5.949219 26.054688 C 5.925781 25.996094 5.835938 25.984375 5.761719 26.03125 C 5.570312 26.15625 5.042969 26.214844 5.042969 26.128906 C 5.042969 26.019531 5.582031 25.847656 5.9375 25.859375 C 6.203125 25.859375 6.238281 25.894531 6.125 26.019531 Z M 2.683594 26.558594 C 2.648438 26.695312 2.558594 26.804688 2.46875 26.804688 C 2.230469 26.804688 1.953125 26.585938 2.054688 26.472656 C 2.117188 26.425781 2.207031 26.449219 2.257812 26.546875 C 2.34375 26.671875 2.382812 26.660156 2.433594 26.511719 C 2.546875 26.230469 2.761719 26.265625 2.683594 26.558594 Z M 5.042969 26.609375 C 5.042969 26.648438 4.992188 26.707031 4.917969 26.746094 C 4.851562 26.78125 4.789062 26.757812 4.789062 26.695312 C 4.789062 26.621094 4.851562 26.558594 4.917969 26.558594 C 4.992188 26.558594 5.042969 26.585938 5.042969 26.609375 Z M 5.796875 26.683594 C 5.796875 26.746094 5.746094 26.804688 5.671875 26.804688 C 5.609375 26.804688 5.546875 26.746094 5.546875 26.683594 C 5.546875 26.609375 5.609375 26.558594 5.671875 26.558594 C 5.746094 26.558594 5.796875 26.609375 5.796875 26.683594 Z M 1.386719 26.953125 C 1.386719 27.027344 1.3125 27.015625 1.195312 26.929688 C 1.097656 26.84375 1.007812 26.757812 1.007812 26.730469 C 1.007812 26.707031 1.097656 26.71875 1.195312 26.757812 C 1.296875 26.804688 1.386719 26.894531 1.386719 26.953125 Z M 5.34375 26.878906 C 5.382812 26.976562 5.371094 27.027344 5.292969 26.992188 C 5.21875 26.953125 5.167969 26.867188 5.167969 26.792969 C 5.167969 26.621094 5.257812 26.660156 5.34375 26.878906 Z M 0.945312 27.054688 C 0.90625 27.113281 0.820312 27.175781 0.742188 27.175781 C 0.679688 27.175781 0.628906 27.113281 0.628906 27.054688 C 0.628906 26.976562 0.71875 26.929688 0.832031 26.929688 C 0.933594 26.929688 0.984375 26.976562 0.945312 27.054688 Z M 2.394531 27.199219 C 2.394531 27.25 2.257812 27.285156 2.09375 27.273438 C 1.917969 27.261719 1.804688 27.210938 1.828125 27.175781 C 1.890625 27.066406 2.394531 27.089844 2.394531 27.199219 Z M 0.820312 27.542969 C 0.855469 27.605469 0.832031 27.667969 0.769531 27.667969 C 0.691406 27.667969 0.628906 27.605469 0.628906 27.542969 C 0.628906 27.472656 0.65625 27.421875 0.679688 27.421875 C 0.71875 27.421875 0.78125 27.472656 0.820312 27.542969 Z M 2.015625 27.542969 C 2.015625 27.605469 1.953125 27.667969 1.878906 27.667969 C 1.816406 27.667969 1.789062 27.605469 1.828125 27.542969 C 1.867188 27.472656 1.929688 27.421875 1.964844 27.421875 C 1.992188 27.421875 2.015625 27.472656 2.015625 27.542969 Z M 1.425781 28.121094 C 1.335938 28.148438 1.183594 28.148438 1.109375 28.121094 C 1.019531 28.085938 1.082031 28.0625 1.261719 28.0625 C 1.4375 28.0625 1.5 28.085938 1.425781 28.121094 Z M 2.320312 29.082031 C 2.355469 29.179688 2.332031 29.265625 2.269531 29.265625 C 2.191406 29.265625 2.144531 29.179688 2.144531 29.082031 C 2.144531 28.984375 2.167969 28.898438 2.191406 28.898438 C 2.21875 28.898438 2.269531 28.984375 2.320312 29.082031 Z M 1.929688 29.449219 C 1.839844 29.710938 1.765625 29.683594 1.765625 29.375 C 1.765625 29.242188 1.816406 29.15625 1.890625 29.203125 C 1.953125 29.242188 1.980469 29.351562 1.929688 29.449219 Z M 4.917969 29.375 C 4.917969 29.449219 4.867188 29.535156 4.789062 29.574219 C 4.726562 29.609375 4.664062 29.5625 4.664062 29.464844 C 4.664062 29.351562 4.726562 29.265625 4.789062 29.265625 C 4.867188 29.265625 4.917969 29.316406 4.917969 29.375 Z M 2.648438 29.511719 C 2.648438 29.574219 2.558594 29.636719 2.457031 29.636719 C 2.355469 29.636719 2.269531 29.574219 2.269531 29.511719 C 2.269531 29.4375 2.355469 29.390625 2.457031 29.390625 C 2.558594 29.390625 2.648438 29.4375 2.648438 29.511719 Z M 5.546875 29.648438 C 5.546875 29.722656 5.496094 29.734375 5.421875 29.695312 C 5.355469 29.660156 5.292969 29.5625 5.292969 29.5 C 5.292969 29.425781 5.355469 29.414062 5.421875 29.449219 C 5.496094 29.488281 5.546875 29.585938 5.546875 29.648438 Z M 1.640625 29.5625 C 1.640625 29.597656 1.589844 29.660156 1.511719 29.695312 C 1.449219 29.734375 1.386719 29.710938 1.386719 29.648438 C 1.386719 29.574219 1.449219 29.511719 1.511719 29.511719 C 1.589844 29.511719 1.640625 29.535156 1.640625 29.5625 Z M 4.035156 29.683594 C 4.035156 29.722656 3.984375 29.78125 3.90625 29.820312 C 3.84375 29.855469 3.78125 29.832031 3.78125 29.769531 C 3.78125 29.695312 3.84375 29.636719 3.90625 29.636719 C 3.984375 29.636719 4.035156 29.660156 4.035156 29.683594 Z M 3.402344 29.882812 C 3.402344 30.027344 3.304688 30.027344 2.960938 29.882812 C 2.734375 29.78125 2.746094 29.769531 3.0625 29.769531 C 3.253906 29.757812 3.402344 29.808594 3.402344 29.882812 Z M 1.953125 30.128906 C 1.917969 30.1875 1.804688 30.25 1.726562 30.25 C 1.640625 30.25 1.652344 30.199219 1.765625 30.128906 C 2.003906 29.980469 2.054688 29.980469 1.953125 30.128906 Z M 1.476562 30.445312 C 1.4375 30.484375 1.324219 30.496094 1.234375 30.460938 C 1.132812 30.421875 1.171875 30.386719 1.3125 30.386719 C 1.449219 30.375 1.523438 30.410156 1.476562 30.445312 Z M 1.261719 31.601562 C 1.261719 31.664062 1.195312 31.726562 1.121094 31.726562 C 1.058594 31.726562 1.035156 31.664062 1.070312 31.601562 C 1.109375 31.53125 1.171875 31.480469 1.210938 31.480469 C 1.234375 31.480469 1.261719 31.53125 1.261719 31.601562 Z M 1.261719 31.601562 "/>
<path style=" stroke:none;fill-rule:nonzero;fill:rgb(0%,0%,0%);fill-opacity:1;" d="M 10.640625 13.523438 C 10.285156 13.5625 9.894531 13.660156 9.792969 13.757812 C 9.617188 13.890625 9.492188 13.878906 8.988281 13.71875 C 8.269531 13.488281 8.320312 13.488281 8.320312 13.707031 C 8.320312 13.941406 9.039062 14.386719 9.402344 14.386719 C 9.542969 14.386719 9.769531 14.273438 9.894531 14.136719 C 10.058594 13.964844 10.285156 13.890625 10.652344 13.890625 C 10.953125 13.890625 11.257812 13.820312 11.332031 13.71875 C 11.535156 13.488281 11.394531 13.4375 10.640625 13.523438 Z M 10.640625 13.523438 "/>
<path style=" stroke:none;fill-rule:nonzero;fill:rgb(0%,0%,0%);fill-opacity:1;" d="M 8.191406 15.292969 C 8.191406 15.394531 8.519531 15.539062 9 15.664062 C 9.707031 15.859375 9.921875 15.859375 10.980469 15.710938 C 11.875 15.589844 12.164062 15.503906 12.164062 15.367188 C 12.164062 15.269531 12.023438 15.160156 11.859375 15.148438 C 11.695312 15.121094 11.597656 15.160156 11.648438 15.222656 C 11.847656 15.539062 9.203125 15.6875 8.761719 15.367188 C 8.484375 15.171875 8.191406 15.132812 8.191406 15.292969 Z M 8.191406 15.292969 "/>
<path style=" stroke:none;fill-rule:nonzero;fill:rgb(0%,0%,0%);fill-opacity:1;" d="M 6.679688 15.800781 C 6.691406 16.019531 7.261719 16.84375 7.347656 16.757812 C 7.5 16.625 7.449219 16.523438 7.058594 16.09375 C 6.855469 15.859375 6.679688 15.726562 6.679688 15.800781 Z M 6.679688 15.800781 "/>
<path style=" stroke:none;fill-rule:nonzero;fill:rgb(0%,0%,0%);fill-opacity:1;" d="M 8.988281 16.203125 C 9.113281 16.328125 9.164062 16.476562 9.113281 16.511719 C 9.074219 16.5625 9.554688 16.597656 10.195312 16.597656 C 11.308594 16.597656 11.34375 16.585938 11.21875 16.363281 C 11.054688 16.046875 10.703125 15.945312 10.285156 16.09375 C 10.109375 16.167969 9.894531 16.203125 9.808594 16.179688 C 9.71875 16.144531 9.453125 16.09375 9.214844 16.058594 C 8.796875 15.984375 8.796875 15.996094 8.988281 16.203125 Z M 8.988281 16.203125 "/>
<path style=" stroke:none;fill-rule:nonzero;fill:rgb(0%,0%,0%);fill-opacity:1;" d="M 0.0117188 20.496094 C 0.0117188 20.632812 0.0507812 20.65625 0.0898438 20.558594 C 0.113281 20.484375 0.203125 20.433594 0.265625 20.484375 C 0.328125 20.523438 0.378906 20.484375 0.378906 20.421875 C 0.378906 20.351562 0.289062 20.289062 0.1875 20.289062 C 0.0898438 20.289062 0 20.386719 0.0117188 20.496094 Z M 0.0117188 20.496094 "/>
</g>
</svg>
