<?xml version="1.0" encoding="UTF-8"?>
<svg xmlns="http://www.w3.org/2000/svg" xmlns:xlink="http://www.w3.org/1999/xlink" width="24px" height="34px" viewBox="0 0 24 34" version="1.1">
<g id="surface1">
<path style=" stroke:none;fill-rule:nonzero;fill:rgb(0%,0%,0%);fill-opacity:1;" d="M 15.578125 3.097656 C 15.609375 3.25 15.59375 3.265625 15.390625 3.234375 C 15.269531 3.222656 15.140625 3.242188 15.121094 3.285156 C 15.089844 3.339844 15.128906 3.367188 15.21875 3.367188 C 15.300781 3.367188 15.390625 3.402344 15.414062 3.441406 C 15.441406 3.484375 15.503906 3.5 15.546875 3.496094 C 15.601562 3.484375 15.644531 3.511719 15.652344 3.546875 C 15.660156 3.589844 15.621094 3.609375 15.5625 3.597656 C 15.425781 3.574219 15.335938 3.71875 15.433594 3.816406 C 15.480469 3.859375 15.496094 3.9375 15.472656 3.988281 C 15.449219 4.046875 15.480469 4.09375 15.554688 4.09375 C 15.621094 4.09375 15.675781 4.117188 15.675781 4.152344 C 15.675781 4.199219 15.585938 4.199219 15.441406 4.160156 C 15.308594 4.125 15.171875 4.109375 15.140625 4.132812 C 15.058594 4.175781 15.050781 4.058594 15.136719 3.988281 C 15.226562 3.902344 15.195312 3.519531 15.097656 3.476562 C 15.046875 3.460938 15 3.492188 15 3.546875 C 15 3.625 14.917969 3.65625 14.722656 3.65625 L 14.4375 3.660156 L 14.664062 3.765625 L 14.886719 3.859375 L 14.675781 3.867188 C 14.398438 3.875 14.488281 4.019531 14.78125 4.019531 C 14.902344 4.019531 15 4.046875 15 4.082031 C 15 4.175781 14.683594 4.242188 14.585938 4.160156 C 14.535156 4.117188 14.46875 4.125 14.421875 4.167969 C 14.308594 4.277344 13.550781 4.109375 13.597656 3.988281 C 13.613281 3.945312 13.558594 3.910156 13.46875 3.902344 C 13.386719 3.902344 12.984375 3.875 12.585938 3.851562 C 11.894531 3.800781 11.851562 3.808594 11.648438 3.96875 C 11.535156 4.058594 11.339844 4.160156 11.210938 4.191406 C 10.867188 4.269531 10.125 4.726562 9.710938 5.125 C 9.425781 5.390625 9.375 5.472656 9.503906 5.441406 C 9.59375 5.421875 9.683594 5.441406 9.699219 5.492188 C 9.71875 5.550781 9.757812 5.546875 9.839844 5.480469 C 9.90625 5.429688 10.050781 5.398438 10.164062 5.421875 C 10.3125 5.449219 10.433594 5.40625 10.589844 5.28125 C 11.003906 4.953125 11.03125 5.089844 10.703125 5.753906 C 10.550781 6.058594 10.515625 6.082031 10.238281 6.085938 C 9.839844 6.09375 9.675781 6.050781 9.675781 5.921875 C 9.675781 5.832031 9.660156 5.832031 9.554688 5.925781 C 9.496094 5.992188 9.359375 6.042969 9.253906 6.042969 C 9.140625 6.042969 9.050781 6.09375 9.03125 6.167969 C 8.96875 6.347656 8.835938 6.617188 8.878906 6.464844 C 8.902344 6.390625 8.886719 6.316406 8.84375 6.289062 C 8.753906 6.242188 8.609375 6.40625 8.4375 6.746094 C 8.378906 6.875 8.234375 7.070312 8.136719 7.195312 C 7.949219 7.394531 7.816406 7.996094 7.949219 7.996094 C 7.988281 7.996094 8.109375 7.875 8.21875 7.722656 C 8.332031 7.570312 8.574219 7.339844 8.746094 7.210938 C 9.058594 6.976562 9.089844 6.96875 9.425781 7.042969 C 10.191406 7.210938 10.433594 7.1875 10.582031 6.96875 C 10.613281 6.925781 10.746094 6.949219 10.914062 7.019531 C 11.199219 7.128906 12.023438 7.128906 12.503906 7.011719 C 12.757812 6.949219 13.851562 7.121094 14.25 7.28125 C 14.566406 7.410156 14.609375 7.46875 14.902344 8.054688 C 15.074219 8.40625 15.238281 8.765625 15.269531 8.867188 C 15.292969 8.964844 15.359375 9.097656 15.414062 9.15625 C 15.472656 9.210938 15.53125 9.351562 15.5625 9.460938 C 15.613281 9.652344 16.09375 10.078125 16.175781 9.996094 C 16.207031 9.972656 16.164062 9.902344 16.078125 9.84375 C 15.945312 9.742188 15.945312 9.742188 16.109375 9.734375 C 16.207031 9.734375 16.261719 9.761719 16.238281 9.804688 C 16.214844 9.851562 16.238281 9.902344 16.304688 9.921875 C 16.363281 9.945312 16.433594 10.011719 16.453125 10.070312 C 16.484375 10.152344 16.46875 10.152344 16.351562 10.09375 C 16.230469 10.039062 16.199219 10.039062 16.199219 10.125 C 16.199219 10.179688 16.289062 10.277344 16.402344 10.328125 C 16.597656 10.421875 16.726562 10.605469 16.597656 10.605469 C 16.515625 10.605469 16.101562 10.269531 15.847656 10.011719 C 15.5625 9.710938 15.488281 9.84375 15.75 10.167969 C 16.058594 10.539062 16.035156 10.632812 15.726562 10.289062 C 15.449219 9.996094 15.335938 9.953125 15.414062 10.160156 C 15.449219 10.277344 15.425781 10.289062 15.308594 10.261719 C 15.179688 10.234375 15.128906 10.285156 15.007812 10.554688 C 14.925781 10.730469 14.820312 10.890625 14.765625 10.90625 C 14.683594 10.9375 14.699219 11.039062 14.8125 11.40625 C 14.886719 11.660156 14.992188 11.890625 15.039062 11.917969 C 15.074219 11.949219 15.121094 12.285156 15.128906 12.679688 C 15.164062 14.125 15.164062 14.148438 15.300781 14.242188 C 15.367188 14.292969 15.449219 14.402344 15.480469 14.492188 C 15.554688 14.707031 15.660156 14.699219 16.058594 14.441406 C 16.238281 14.324219 16.433594 14.222656 16.484375 14.222656 C 16.613281 14.222656 16.726562 14.523438 16.671875 14.734375 L 16.636719 14.910156 L 16.792969 14.726562 L 16.949219 14.546875 L 16.949219 14.816406 C 16.949219 15.019531 16.980469 15.089844 17.070312 15.089844 C 17.191406 15.089844 17.398438 14.683594 17.398438 14.433594 C 17.398438 14.300781 17.414062 14.292969 17.511719 14.367188 C 17.574219 14.417969 17.625 14.523438 17.625 14.617188 C 17.625 14.828125 17.699219 14.894531 17.828125 14.792969 C 17.984375 14.660156 17.949219 14.871094 17.738281 15.285156 C 17.484375 15.777344 16.84375 16.261719 16.453125 16.261719 C 16.28125 16.261719 16.125 16.203125 16.011719 16.105469 C 15.816406 15.929688 15.796875 15.949219 15.71875 16.332031 C 15.660156 16.640625 15.789062 16.710938 16.003906 16.492188 C 16.117188 16.390625 16.125 16.398438 16.125 16.550781 C 16.125 16.648438 16.042969 17.058594 15.945312 17.476562 C 15.546875 19.171875 15.523438 19.742188 15.824219 20.285156 C 16.027344 20.636719 16.011719 20.886719 15.78125 21.335938 C 15.472656 21.921875 14.09375 23.847656 13.972656 23.847656 C 13.957031 23.847656 13.835938 23.671875 13.695312 23.460938 C 13.328125 22.910156 13.320312 22.902344 12.75 23.019531 C 12.480469 23.070312 12.03125 23.117188 11.738281 23.117188 C 11.390625 23.109375 11.136719 23.144531 11.003906 23.21875 C 10.792969 23.320312 10.761719 23.308594 10.164062 23 C 9.40625 22.617188 9.089844 22.515625 8.953125 22.625 C 8.894531 22.667969 8.761719 22.683594 8.632812 22.652344 C 8.429688 22.609375 8.398438 22.566406 8.316406 22.199219 C 8.265625 21.933594 8.25 21.523438 8.28125 21.074219 L 8.324219 20.367188 L 8.144531 20.480469 C 8.039062 20.542969 7.753906 20.855469 7.507812 21.167969 C 6.796875 22.050781 6.292969 22.492188 5.460938 22.949219 C 5.039062 23.171875 4.582031 23.460938 4.433594 23.59375 C 4.28125 23.722656 4.011719 23.894531 3.824219 23.988281 C 3.636719 24.078125 3.425781 24.199219 3.359375 24.257812 C 3.292969 24.316406 3.195312 24.347656 3.15625 24.316406 C 3.113281 24.296875 3.074219 24.308594 3.074219 24.355469 C 3.074219 24.394531 3.046875 24.414062 3 24.390625 C 2.960938 24.367188 2.859375 24.414062 2.773438 24.496094 C 2.691406 24.574219 2.535156 24.679688 2.429688 24.714844 C 2.046875 24.859375 2.109375 25.074219 2.910156 26.378906 C 3.652344 27.574219 4.265625 28.332031 5.289062 29.296875 C 6.253906 30.199219 7.671875 31.082031 8.851562 31.511719 C 10.191406 32.003906 12 32.164062 13.507812 31.921875 C 14.167969 31.820312 15.75 31.335938 15.832031 31.210938 C 15.863281 31.167969 15.96875 31.132812 16.078125 31.132812 C 16.183594 31.125 16.273438 31.09375 16.273438 31.058594 C 16.273438 31.035156 16.328125 31.011719 16.386719 31.011719 C 16.449219 31.011719 16.5 30.984375 16.5 30.945312 C 16.5 30.910156 16.753906 30.726562 17.070312 30.53125 C 18.699219 29.554688 20.273438 27.847656 21.433594 25.800781 C 21.855469 25.054688 22.191406 24.207031 22.238281 23.804688 C 22.253906 23.621094 22.3125 23.410156 22.371094 23.347656 C 22.71875 22.941406 23.191406 21.226562 23.445312 19.433594 C 23.617188 18.210938 23.617188 15.753906 23.445312 14.511719 C 22.921875 10.78125 21.351562 7.394531 19.171875 5.296875 C 18.75 4.894531 18.34375 4.511719 18.261719 4.453125 C 18.179688 4.394531 17.96875 4.21875 17.78125 4.074219 C 17.519531 3.867188 17.421875 3.824219 17.316406 3.878906 C 17.210938 3.933594 17.191406 3.925781 17.210938 3.851562 C 17.273438 3.714844 16.851562 3.433594 16.71875 3.519531 C 16.566406 3.605469 16.441406 3.597656 16.574219 3.5 C 16.671875 3.445312 16.65625 3.417969 16.507812 3.308594 C 16.402344 3.242188 16.230469 3.148438 16.109375 3.097656 C 15.921875 3.015625 15.898438 3.023438 15.898438 3.15625 C 15.898438 3.242188 15.863281 3.292969 15.808594 3.273438 C 15.757812 3.257812 15.710938 3.183594 15.710938 3.113281 C 15.710938 3.039062 15.675781 2.964844 15.628906 2.957031 C 15.578125 2.941406 15.554688 2.988281 15.578125 3.097656 Z M 16.574219 4.308594 C 16.574219 4.34375 16.546875 4.378906 16.5 4.378906 C 16.460938 4.378906 16.425781 4.34375 16.425781 4.308594 C 16.425781 4.261719 16.460938 4.234375 16.5 4.234375 C 16.546875 4.234375 16.574219 4.261719 16.574219 4.308594 Z M 17.054688 4.417969 C 17.011719 4.53125 16.875 4.570312 16.875 4.46875 C 16.875 4.386719 16.957031 4.308594 17.03125 4.308594 C 17.070312 4.308594 17.078125 4.359375 17.054688 4.417969 Z M 16.800781 4.523438 C 16.800781 4.558594 16.726562 4.597656 16.636719 4.585938 C 16.46875 4.585938 16.46875 4.582031 16.613281 4.523438 C 16.695312 4.488281 16.769531 4.460938 16.785156 4.460938 C 16.792969 4.453125 16.800781 4.480469 16.800781 4.523438 Z M 17.210938 4.667969 C 17.234375 4.703125 17.203125 4.738281 17.144531 4.738281 C 17.078125 4.738281 17.023438 4.792969 17.023438 4.847656 C 17.023438 4.90625 16.996094 4.957031 16.949219 4.957031 C 16.851562 4.957031 16.851562 4.914062 16.949219 4.734375 C 17.039062 4.582031 17.136719 4.554688 17.210938 4.667969 Z M 11.699219 4.957031 C 11.78125 5.039062 11.851562 5.136719 11.851562 5.179688 C 11.851562 5.21875 11.886719 5.230469 11.925781 5.210938 C 11.96875 5.1875 12 5.238281 12 5.332031 C 12 5.492188 12.007812 5.492188 12.1875 5.28125 C 12.359375 5.082031 12.367188 5.082031 12.375 5.222656 C 12.375 5.386719 12.082031 5.890625 11.984375 5.898438 C 11.949219 5.898438 11.933594 5.875 11.933594 5.839844 C 11.953125 5.707031 11.917969 5.660156 11.851562 5.753906 C 11.789062 5.839844 11.765625 5.847656 11.707031 5.761719 C 11.65625 5.683594 11.632812 5.683594 11.578125 5.761719 C 11.535156 5.832031 11.496094 5.796875 11.429688 5.648438 C 11.378906 5.523438 11.332031 5.472656 11.324219 5.515625 C 11.324219 5.566406 11.242188 5.609375 11.136719 5.609375 C 10.914062 5.609375 10.882812 5.378906 11.078125 5.105469 C 11.308594 4.769531 11.46875 4.734375 11.699219 4.957031 Z M 14.191406 5.097656 C 14.339844 5.238281 14.347656 5.238281 14.558594 5.089844 C 14.714844 4.972656 14.796875 4.957031 14.863281 5.015625 C 14.917969 5.054688 14.992188 5.097656 15.03125 5.097656 C 15.171875 5.105469 15.136719 5.320312 14.976562 5.4375 C 14.863281 5.515625 14.84375 5.566406 14.910156 5.589844 C 14.960938 5.609375 15.058594 5.675781 15.128906 5.738281 C 15.238281 5.855469 15.238281 5.863281 15.105469 5.882812 C 15.03125 5.898438 14.910156 5.925781 14.851562 5.949219 C 14.789062 5.972656 14.683594 6 14.625 6.015625 C 14.566406 6.03125 14.421875 6.058594 14.308594 6.085938 C 14.054688 6.144531 14.03125 6.03125 14.273438 5.855469 C 14.398438 5.761719 14.40625 5.746094 14.296875 5.78125 C 14.191406 5.816406 14.167969 5.804688 14.210938 5.707031 C 14.234375 5.632812 14.265625 5.558594 14.273438 5.539062 C 14.28125 5.515625 14.257812 5.492188 14.21875 5.488281 C 14.183594 5.480469 14.128906 5.4375 14.09375 5.386719 C 14.046875 5.3125 14.011719 5.3125 13.921875 5.386719 C 13.851562 5.441406 13.800781 5.457031 13.800781 5.429688 C 13.800781 5.398438 13.65625 5.488281 13.484375 5.625 C 13.304688 5.761719 13.035156 5.898438 12.886719 5.925781 C 12.726562 5.957031 12.601562 6.007812 12.601562 6.042969 C 12.601562 6.085938 12.53125 6.117188 12.449219 6.117188 C 12.277344 6.117188 12.261719 6.023438 12.382812 5.6875 C 12.472656 5.449219 12.523438 5.421875 12.652344 5.546875 C 12.71875 5.609375 12.808594 5.597656 13.027344 5.488281 C 13.183594 5.40625 13.425781 5.3125 13.558594 5.28125 C 13.695312 5.253906 13.84375 5.175781 13.898438 5.097656 C 14.003906 4.929688 13.996094 4.929688 14.191406 5.097656 Z M 15.675781 6.191406 C 15.675781 6.222656 15.515625 6.261719 15.324219 6.25 C 15.03125 6.246094 15 6.242188 15.148438 6.191406 C 15.421875 6.101562 15.675781 6.101562 15.675781 6.191406 Z M 15.628906 6.449219 C 15.78125 6.507812 15.710938 6.625 15.515625 6.625 C 15.375 6.625 15.328125 6.542969 15.425781 6.457031 C 15.488281 6.398438 15.488281 6.398438 15.628906 6.449219 Z M 16.085938 6.984375 C 16.117188 7.027344 16.035156 7.054688 15.90625 7.054688 C 15.78125 7.054688 15.675781 7.019531 15.675781 6.984375 C 15.675781 6.941406 15.757812 6.910156 15.855469 6.910156 C 15.960938 6.910156 16.066406 6.941406 16.085938 6.984375 Z M 16.238281 7.203125 C 16.214844 7.238281 16.140625 7.273438 16.085938 7.273438 C 15.929688 7.273438 16.035156 7.476562 16.214844 7.535156 C 16.476562 7.613281 16.296875 7.648438 15.90625 7.597656 C 15.539062 7.546875 15.367188 7.417969 15.675781 7.417969 C 15.757812 7.417969 15.824219 7.375 15.824219 7.320312 C 15.824219 7.261719 15.914062 7.195312 16.035156 7.179688 C 16.148438 7.164062 16.246094 7.144531 16.261719 7.136719 C 16.273438 7.136719 16.261719 7.160156 16.238281 7.203125 Z M 16.875 7.78125 C 16.816406 7.816406 16.695312 7.847656 16.613281 7.847656 C 16.492188 7.839844 16.492188 7.832031 16.648438 7.78125 C 16.914062 7.703125 17.011719 7.703125 16.875 7.78125 Z M 16.425781 7.863281 C 16.425781 7.910156 16.304688 7.921875 16.074219 7.878906 C 15.585938 7.816406 15.570312 7.78125 16.035156 7.78125 C 16.261719 7.78125 16.425781 7.8125 16.425781 7.863281 Z M 16.238281 8.359375 C 16.261719 8.40625 16.230469 8.410156 16.171875 8.390625 C 16.035156 8.339844 16.011719 8.289062 16.117188 8.289062 C 16.164062 8.289062 16.214844 8.316406 16.238281 8.359375 Z M 16.425781 8.675781 C 16.425781 8.742188 16.132812 8.773438 16.042969 8.714844 C 15.96875 8.671875 16.011719 8.648438 16.183594 8.648438 C 16.3125 8.648438 16.425781 8.664062 16.425781 8.675781 Z M 16.914062 9.300781 C 16.972656 9.394531 16.875 9.394531 16.726562 9.300781 C 16.628906 9.242188 16.628906 9.226562 16.738281 9.226562 C 16.808594 9.226562 16.890625 9.257812 16.914062 9.300781 Z M 16.238281 10.746094 C 16.3125 10.828125 16.34375 10.890625 16.304688 10.890625 C 16.265625 10.890625 16.191406 10.828125 16.140625 10.746094 C 16.085938 10.667969 16.058594 10.605469 16.074219 10.605469 C 16.085938 10.605469 16.164062 10.667969 16.238281 10.746094 Z M 16.3125 11.324219 C 16.335938 11.363281 16.320312 11.398438 16.28125 11.398438 C 16.238281 11.398438 16.199219 11.363281 16.199219 11.324219 C 16.199219 11.28125 16.214844 11.253906 16.230469 11.253906 C 16.253906 11.253906 16.289062 11.28125 16.3125 11.324219 Z M 13.101562 23.351562 C 13.078125 23.410156 13.058594 23.386719 13.058594 23.308594 C 13.050781 23.230469 13.074219 23.1875 13.09375 23.21875 C 13.117188 23.238281 13.125 23.304688 13.101562 23.351562 Z M 22.199219 23.554688 C 22.199219 23.59375 22.109375 23.628906 21.996094 23.621094 L 21.789062 23.613281 L 21.976562 23.554688 C 22.078125 23.527344 22.171875 23.496094 22.183594 23.492188 C 22.191406 23.484375 22.199219 23.511719 22.199219 23.554688 Z M 11.871094 24.375 C 12.089844 24.511719 12.449219 24.679688 12.675781 24.75 C 12.898438 24.824219 13.101562 24.890625 13.117188 24.902344 C 13.148438 24.925781 12.878906 25.386719 12.75 25.535156 C 12.703125 25.574219 12.496094 25.867188 12.277344 26.167969 C 11.675781 27.023438 10.769531 28.1875 10.703125 28.1875 C 10.65625 28.1875 9.523438 26.003906 9.523438 25.910156 C 9.523438 25.894531 9.40625 25.640625 9.261719 25.351562 C 8.953125 24.75 8.960938 24.53125 9.277344 24.472656 C 9.503906 24.433594 9.929688 24.332031 10.351562 24.222656 C 10.492188 24.179688 10.808594 24.148438 11.046875 24.140625 C 11.421875 24.136719 11.535156 24.171875 11.871094 24.375 Z M 11.871094 24.375 "/>
<path style=" stroke:none;fill-rule:nonzero;fill:rgb(0%,0%,0%);fill-opacity:1;" d="M 11.484375 5.046875 C 11.484375 5.113281 11.453125 5.222656 11.429688 5.296875 C 11.390625 5.421875 11.390625 5.421875 11.476562 5.296875 C 11.519531 5.222656 11.542969 5.113281 11.527344 5.046875 C 11.496094 4.9375 11.488281 4.9375 11.484375 5.046875 Z M 11.484375 5.046875 "/>
<path style=" stroke:none;fill-rule:nonzero;fill:rgb(0%,0%,0%);fill-opacity:1;" d="M 14.886719 5.320312 C 14.863281 5.355469 14.878906 5.390625 14.917969 5.390625 C 14.960938 5.390625 15 5.355469 15 5.320312 C 15 5.277344 14.984375 5.246094 14.96875 5.246094 C 14.949219 5.246094 14.910156 5.277344 14.886719 5.320312 Z M 14.886719 5.320312 "/>
<path style=" stroke:none;fill-rule:nonzero;fill:rgb(0%,0%,0%);fill-opacity:1;" d="M 14.511719 5.390625 C 14.453125 5.488281 14.550781 5.488281 14.699219 5.390625 C 14.796875 5.332031 14.796875 5.320312 14.683594 5.320312 C 14.617188 5.320312 14.535156 5.347656 14.511719 5.390625 Z M 14.511719 5.390625 "/>
<path style=" stroke:none;fill-rule:nonzero;fill:rgb(0%,0%,0%);fill-opacity:1;" d="M 9.375 4.8125 C 9.375 4.847656 9.414062 4.886719 9.457031 4.886719 C 9.496094 4.886719 9.511719 4.847656 9.488281 4.8125 C 9.464844 4.769531 9.425781 4.738281 9.40625 4.738281 C 9.390625 4.738281 9.375 4.769531 9.375 4.8125 Z M 9.375 4.8125 "/>
<path style=" stroke:none;fill-rule:nonzero;fill:rgb(0%,0%,0%);fill-opacity:1;" d="M 7.695312 8.28125 C 7.664062 8.332031 7.65625 8.390625 7.679688 8.410156 C 7.746094 8.476562 7.824219 8.382812 7.785156 8.28125 C 7.753906 8.199219 7.738281 8.199219 7.695312 8.28125 Z M 7.695312 8.28125 "/>
<path style=" stroke:none;fill-rule:nonzero;fill:rgb(0%,0%,0%);fill-opacity:1;" d="M 7.050781 9.109375 C 6.78125 9.625 6.742188 9.75 6.789062 9.960938 C 6.816406 10.09375 6.839844 10.414062 6.839844 10.671875 C 6.832031 11.007812 6.898438 11.347656 7.050781 11.824219 C 7.171875 12.195312 7.261719 12.527344 7.238281 12.550781 C 7.207031 12.609375 8.183594 12.570312 8.242188 12.519531 C 8.257812 12.5 8.109375 12.484375 7.90625 12.484375 C 7.46875 12.484375 7.359375 12.402344 7.417969 12.136719 L 7.453125 11.941406 L 7.5 12.160156 C 7.566406 12.535156 8.101562 12.46875 8.101562 12.085938 C 8.101562 11.992188 8.054688 11.90625 8.011719 11.882812 C 7.949219 11.867188 7.941406 11.824219 7.980469 11.789062 C 8.015625 11.753906 8.0625 11.757812 8.078125 11.808594 C 8.101562 11.859375 8.160156 11.90625 8.210938 11.90625 C 8.363281 11.90625 8.476562 12.136719 8.421875 12.328125 C 8.390625 12.441406 8.414062 12.484375 8.503906 12.484375 C 8.691406 12.484375 8.863281 12 8.828125 11.550781 C 8.789062 11.050781 8.632812 10.914062 7.800781 10.640625 C 7.265625 10.457031 7.191406 10.40625 7.222656 10.277344 C 7.246094 10.195312 7.359375 9.761719 7.476562 9.316406 L 7.695312 8.503906 L 7.53125 8.503906 C 7.410156 8.503906 7.304688 8.632812 7.050781 9.109375 Z M 7.574219 11.246094 C 7.574219 11.3125 7.265625 11.414062 7.214844 11.363281 C 7.199219 11.347656 7.207031 11.304688 7.238281 11.257812 C 7.296875 11.167969 7.574219 11.152344 7.574219 11.246094 Z M 8.183594 11.625 C 8.25 11.652344 8.347656 11.742188 8.40625 11.800781 C 8.503906 11.917969 8.496094 11.917969 8.289062 11.808594 C 8.160156 11.753906 7.925781 11.675781 7.769531 11.652344 C 7.574219 11.617188 7.515625 11.582031 7.582031 11.535156 C 7.6875 11.476562 7.964844 11.515625 8.183594 11.625 Z M 8.183594 11.625 "/>
<path style=" stroke:none;fill-rule:nonzero;fill:rgb(0%,0%,0%);fill-opacity:1;" d="M 10.140625 11.132812 C 10.035156 11.253906 10.085938 11.441406 10.238281 11.5 C 10.296875 11.523438 10.363281 11.695312 10.394531 11.90625 C 10.425781 12.125 10.484375 12.269531 10.539062 12.269531 C 10.589844 12.269531 10.628906 12.316406 10.621094 12.382812 C 10.605469 12.554688 10.882812 12.578125 10.925781 12.402344 C 10.980469 12.210938 11.101562 12.230469 11.101562 12.445312 C 11.101562 12.761719 11.558594 12.886719 11.707031 12.613281 C 11.773438 12.492188 11.773438 12.441406 11.671875 12.375 C 11.601562 12.328125 11.550781 12.269531 11.550781 12.238281 C 11.550781 12.1875 11.871094 12.367188 12.113281 12.554688 C 12.277344 12.6875 12.675781 12.859375 12.675781 12.8125 C 12.675781 12.773438 11.617188 12.101562 11.289062 11.917969 C 11.144531 11.839844 11.152344 11.839844 11.339844 11.832031 C 11.648438 11.832031 11.925781 11.96875 12.351562 12.351562 C 12.5625 12.542969 12.78125 12.703125 12.832031 12.703125 C 12.996094 12.703125 12.570312 12.328125 11.984375 11.957031 C 11.664062 11.757812 11.398438 11.585938 11.398438 11.582031 C 11.398438 11.566406 11.714844 11.59375 12.195312 11.652344 C 12.449219 11.691406 12.601562 11.683594 12.628906 11.625 C 12.667969 11.574219 12.609375 11.542969 12.457031 11.542969 C 12.21875 11.542969 12.050781 11.40625 12.277344 11.390625 C 12.351562 11.382812 12.210938 11.339844 11.960938 11.28125 C 11.714844 11.230469 11.46875 11.203125 11.40625 11.222656 C 11.347656 11.242188 11.273438 11.21875 11.242188 11.175781 C 11.160156 11.039062 10.246094 11 10.140625 11.132812 Z M 10.140625 11.132812 "/>
<path style=" stroke:none;fill-rule:nonzero;fill:rgb(0%,0%,0%);fill-opacity:1;" d="M 6.726562 14.492188 C 6.667969 14.582031 6.898438 15.523438 6.984375 15.523438 C 7.078125 15.523438 6.996094 14.828125 6.871094 14.597656 C 6.816406 14.496094 6.75 14.445312 6.726562 14.492188 Z M 6.726562 14.492188 "/>
<path style=" stroke:none;fill-rule:nonzero;fill:rgb(0%,0%,0%);fill-opacity:1;" d="M 7.726562 14.777344 C 7.726562 14.867188 7.777344 14.980469 7.835938 15.046875 C 7.980469 15.175781 7.980469 15.371094 7.835938 15.554688 C 7.777344 15.628906 7.726562 15.789062 7.726562 15.898438 C 7.726562 16.054688 7.679688 16.125 7.539062 16.175781 C 7.433594 16.210938 7.328125 16.304688 7.304688 16.371094 C 7.28125 16.441406 7.214844 16.601562 7.148438 16.726562 C 7.050781 16.925781 7.050781 17.058594 7.132812 17.753906 L 7.222656 18.554688 L 7.449219 18.128906 C 7.640625 17.769531 7.695312 17.710938 7.808594 17.769531 C 7.964844 17.851562 8.925781 17.863281 9.039062 17.78125 C 9.082031 17.753906 9.15625 17.679688 9.210938 17.609375 C 9.300781 17.507812 9.253906 17.484375 8.765625 17.402344 C 8.003906 17.285156 7.710938 17.152344 7.738281 16.949219 C 7.761719 16.796875 7.792969 16.789062 8.476562 16.808594 C 9.128906 16.832031 9.472656 16.898438 10.558594 17.21875 C 10.921875 17.324219 10.957031 17.261719 10.6875 17 C 10.558594 16.875 10.449219 16.832031 10.359375 16.863281 C 10.214844 16.90625 9.140625 16.457031 8.941406 16.261719 C 8.886719 16.21875 8.78125 16.175781 8.714844 16.179688 C 8.625 16.179688 8.632812 16.203125 8.761719 16.246094 C 8.851562 16.28125 8.925781 16.347656 8.925781 16.382812 C 8.925781 16.515625 8.648438 16.539062 8.378906 16.429688 C 8.101562 16.320312 7.949219 16.175781 8.109375 16.175781 C 8.167969 16.175781 8.167969 16.148438 8.113281 16.082031 C 7.996094 15.949219 8.273438 15.523438 8.476562 15.523438 C 8.558594 15.523438 8.625 15.554688 8.625 15.597656 C 8.625 15.746094 8.765625 15.652344 8.84375 15.453125 C 8.902344 15.277344 8.960938 15.234375 9.140625 15.234375 C 9.261719 15.234375 9.390625 15.261719 9.414062 15.304688 C 9.488281 15.421875 9.71875 15.394531 9.832031 15.253906 C 9.921875 15.144531 9.921875 15.140625 9.808594 15.183594 C 9.742188 15.203125 9.644531 15.175781 9.601562 15.117188 C 9.488281 14.996094 8.984375 14.980469 8.761719 15.097656 C 8.566406 15.195312 8.003906 15.003906 7.835938 14.777344 L 7.726562 14.625 Z M 7.726562 14.777344 "/>
<path style=" stroke:none;fill-rule:nonzero;fill:rgb(0%,0%,0%);fill-opacity:1;" d="M 7.402344 19.039062 C 7.351562 19.089844 7.539062 19.480469 7.679688 19.613281 C 7.726562 19.65625 7.921875 19.765625 8.109375 19.851562 C 8.363281 19.976562 8.46875 20.066406 8.496094 20.210938 C 8.578125 20.578125 9.03125 21.195312 9.464844 21.53125 C 9.9375 21.898438 11.011719 22.515625 11.070312 22.449219 C 11.128906 22.390625 10.914062 22.023438 10.734375 21.863281 C 10.507812 21.667969 10.523438 21.285156 10.769531 21.003906 C 10.972656 20.769531 11.664062 20.308594 11.828125 20.292969 C 12.148438 20.261719 13.003906 19.886719 13.191406 19.691406 C 13.273438 19.605469 13.476562 19.4375 13.640625 19.324219 C 13.808594 19.199219 13.941406 19.082031 13.949219 19.046875 C 13.957031 18.929688 13.726562 19.003906 13.621094 19.15625 C 13.53125 19.28125 13.484375 19.300781 13.410156 19.230469 C 13.289062 19.113281 13.199219 19.121094 13.199219 19.257812 C 13.199219 19.316406 13.164062 19.34375 13.125 19.324219 C 13.078125 19.292969 12.855469 19.316406 12.613281 19.367188 C 12.382812 19.410156 12.121094 19.457031 12.039062 19.46875 C 11.953125 19.480469 11.753906 19.523438 11.585938 19.566406 C 11.421875 19.613281 11.183594 19.648438 11.046875 19.648438 C 10.921875 19.648438 10.785156 19.683594 10.753906 19.726562 C 10.726562 19.777344 10.589844 19.792969 10.410156 19.773438 C 10.246094 19.75 10.003906 19.765625 9.878906 19.800781 C 9.71875 19.84375 9.628906 19.835938 9.613281 19.792969 C 9.601562 19.757812 9.480469 19.722656 9.351562 19.722656 C 9.226562 19.722656 8.984375 19.675781 8.8125 19.617188 C 8.648438 19.558594 8.386719 19.5 8.234375 19.46875 C 8.070312 19.449219 7.867188 19.339844 7.734375 19.214844 C 7.5 18.980469 7.476562 18.972656 7.402344 19.039062 Z M 10.296875 20.132812 C 10.246094 20.148438 10.140625 20.148438 10.074219 20.132812 C 9.996094 20.109375 10.042969 20.097656 10.164062 20.097656 C 10.289062 20.097656 10.34375 20.109375 10.296875 20.132812 Z M 10.296875 20.132812 "/>
</g>
</svg>
