<?xml version="1.0" encoding="UTF-8"?>
<svg xmlns="http://www.w3.org/2000/svg" xmlns:xlink="http://www.w3.org/1999/xlink" width="24px" height="32px" viewBox="0 0 24 31" version="1.1">
<g id="surface1">
<path style=" stroke:none;fill-rule:nonzero;fill:rgb(0%,0%,0%);fill-opacity:1;" d="M 14.925781 0.890625 C 14.070312 1.046875 12.574219 1.226562 11.597656 1.296875 C 10.238281 1.390625 9.574219 1.488281 8.851562 1.726562 C 7.972656 2.023438 7.554688 2.199219 5.203125 3.378906 C 4.039062 3.949219 2.851562 4.9375 2.03125 6.011719 C 1.652344 6.5 1.285156 6.929688 1.222656 6.964844 C 1.054688 7.070312 0.246094 8.640625 0.246094 8.867188 C 0.246094 9.226562 0.734375 9.988281 1.210938 10.355469 C 1.53125 10.605469 1.664062 10.796875 1.628906 10.941406 C 1.605469 11.058594 1.652344 11.34375 1.75 11.570312 C 1.945312 12.023438 2.914062 13.308594 3.269531 13.582031 C 3.402344 13.679688 3.367188 13.582031 3.171875 13.332031 C 2.621094 12.617188 2.289062 11.882812 2.449219 11.785156 C 2.730469 11.617188 3.683594 11.546875 3.941406 11.679688 C 4.078125 11.75 4.210938 11.773438 4.25 11.75 C 4.273438 11.714844 4.175781 11.65625 4.015625 11.59375 L 3.734375 11.511719 L 4.027344 11.402344 C 4.382812 11.285156 4.445312 11.320312 4.457031 11.773438 C 4.46875 12.058594 4.507812 12.09375 4.675781 12.011719 C 4.835938 11.929688 4.921875 11.964844 5.007812 12.128906 C 5.082031 12.25 5.105469 12.382812 5.070312 12.417969 C 5.03125 12.453125 5.042969 12.570312 5.117188 12.679688 C 5.203125 12.84375 5.277344 12.785156 5.484375 12.332031 C 5.632812 12.035156 5.753906 11.714844 5.753906 11.617188 C 5.753906 11.402344 6.21875 11.285156 6.503906 11.429688 C 6.613281 11.5 6.832031 11.726562 6.96875 11.953125 C 7.113281 12.167969 7.421875 12.476562 7.652344 12.628906 C 7.886719 12.785156 8.058594 12.964844 8.042969 13.023438 C 8.019531 13.082031 8.265625 13.40625 8.597656 13.738281 C 8.914062 14.070312 9.183594 14.378906 9.183594 14.429688 C 9.183594 14.488281 9.269531 14.523438 9.378906 14.523438 C 9.476562 14.523438 9.527344 14.570312 9.488281 14.644531 C 9.453125 14.703125 9.503906 14.761719 9.601562 14.761719 C 9.710938 14.761719 9.796875 14.808594 9.796875 14.855469 C 9.796875 14.90625 10.015625 15.082031 10.285156 15.238281 C 10.554688 15.40625 10.75 15.59375 10.714844 15.679688 C 10.6875 15.75 10.777344 15.832031 10.910156 15.867188 C 11.058594 15.90625 11.117188 16 11.070312 16.105469 C 11.03125 16.214844 11.105469 16.296875 11.265625 16.34375 C 11.484375 16.394531 11.511719 16.367188 11.4375 16.15625 C 11.398438 16.011719 11.351562 15.84375 11.339844 15.773438 C 11.339844 15.714844 11.203125 15.558594 11.042969 15.441406 C 10.898438 15.320312 10.800781 15.179688 10.835938 15.121094 C 10.875 15.058594 10.789062 14.988281 10.652344 14.941406 C 10.519531 14.90625 10.40625 14.808594 10.40625 14.75 C 10.40625 14.691406 10.3125 14.644531 10.199219 14.644531 C 10.089844 14.644531 10.039062 14.605469 10.078125 14.570312 C 10.125 14.523438 9.992188 14.40625 9.785156 14.296875 C 9.390625 14.09375 8.214844 13.203125 8.203125 13.09375 C 8.203125 13.058594 8.535156 13.058594 8.9375 13.070312 C 9.34375 13.09375 9.671875 13.070312 9.671875 13.011719 C 9.671875 12.964844 9.402344 12.917969 9.074219 12.917969 C 8.742188 12.917969 8.496094 12.882812 8.523438 12.832031 C 8.546875 12.796875 8.511719 12.714844 8.4375 12.667969 C 8.339844 12.617188 8.328125 12.628906 8.375 12.714844 C 8.425781 12.796875 8.398438 12.855469 8.316406 12.855469 C 8.132812 12.855469 7.164062 11.917969 7.261719 11.832031 C 7.296875 11.796875 7.519531 11.964844 7.738281 12.214844 C 8.03125 12.511719 8.167969 12.59375 8.167969 12.464844 C 8.167969 12.34375 8.144531 12.285156 8.105469 12.320312 C 8.03125 12.394531 7.59375 11.84375 7.59375 11.679688 C 7.59375 11.605469 7.640625 11.546875 7.714844 11.546875 C 7.921875 11.546875 7.703125 11.214844 7.445312 11.15625 C 7.261719 11.105469 7.210938 11.023438 7.261719 10.832031 C 7.3125 10.628906 7.285156 10.582031 7.113281 10.628906 C 6.96875 10.667969 6.90625 10.605469 6.882812 10.429688 C 6.867188 10.226562 6.894531 10.214844 6.992188 10.355469 C 7.089844 10.488281 7.140625 10.5 7.1875 10.378906 C 7.210938 10.308594 7.382812 10.238281 7.542969 10.238281 C 7.714844 10.238281 7.824219 10.273438 7.789062 10.332031 C 7.761719 10.378906 7.8125 10.523438 7.910156 10.640625 C 8.058594 10.84375 8.082031 10.855469 8.15625 10.667969 C 8.214844 10.5 8.265625 10.511719 8.398438 10.785156 C 8.496094 10.953125 8.570312 11.167969 8.570312 11.261719 C 8.570312 11.34375 8.644531 11.390625 8.730469 11.355469 C 8.828125 11.320312 8.964844 11.378906 9.046875 11.476562 C 9.136719 11.582031 9.402344 11.691406 9.636719 11.738281 C 9.917969 11.785156 10.039062 11.867188 9.992188 11.976562 C 9.957031 12.070312 10.003906 12.140625 10.113281 12.140625 C 10.238281 12.140625 10.285156 12.070312 10.25 11.976562 C 10.210938 11.882812 10.25 11.773438 10.347656 11.75 C 10.605469 11.640625 10.664062 11.796875 10.46875 12.070312 C 10.1875 12.453125 10.25 12.738281 10.53125 12.382812 C 10.714844 12.15625 10.75 11.941406 10.726562 11.429688 C 10.703125 11.070312 10.703125 10.914062 10.738281 11.09375 C 10.761719 11.285156 10.859375 11.429688 10.933594 11.429688 C 11.042969 11.429688 11.042969 11.453125 10.933594 11.523438 C 10.847656 11.570312 10.824219 11.679688 10.886719 11.773438 C 10.960938 11.894531 11.070312 11.855469 11.328125 11.617188 C 11.511719 11.453125 11.78125 11.308594 11.902344 11.308594 C 12.035156 11.308594 12.097656 11.25 12.0625 11.191406 C 12.011719 11.117188 11.925781 11.105469 11.851562 11.140625 C 11.765625 11.191406 11.753906 11.167969 11.804688 11.09375 C 11.863281 11 11.964844 10.988281 12.109375 11.058594 C 12.269531 11.140625 12.332031 11.128906 12.34375 11 C 12.355469 10.914062 12.378906 10.761719 12.390625 10.667969 C 12.402344 10.570312 12.613281 10.464844 12.882812 10.429688 C 13.140625 10.378906 13.335938 10.308594 13.296875 10.261719 C 13.222656 10.15625 14.644531 9.820312 14.976562 9.867188 C 15.085938 9.878906 15.183594 9.84375 15.183594 9.785156 C 15.183594 9.714844 15.292969 9.691406 15.417969 9.726562 C 15.550781 9.761719 15.84375 9.691406 16.089844 9.582031 C 16.359375 9.464844 16.714844 9.390625 17.019531 9.429688 C 17.300781 9.453125 17.511719 9.414062 17.511719 9.34375 C 17.511719 9.285156 17.558594 9.296875 17.621094 9.390625 C 17.707031 9.523438 17.730469 9.523438 17.792969 9.390625 C 17.828125 9.296875 17.863281 9.34375 17.863281 9.488281 C 17.878906 9.785156 18.121094 9.867188 18.121094 9.59375 C 18.121094 9.390625 18.855469 8.808594 19.101562 8.808594 C 19.1875 8.808594 19.222656 8.726562 19.175781 8.617188 C 19.140625 8.511719 19.101562 8.378906 19.101562 8.320312 C 19.101562 8.261719 19.027344 8.273438 18.929688 8.355469 C 18.832031 8.441406 18.796875 8.558594 18.832031 8.617188 C 18.867188 8.6875 18.796875 8.6875 18.660156 8.628906 C 18.539062 8.582031 18.207031 8.546875 17.9375 8.558594 C 17.214844 8.605469 15.929688 8.582031 12.855469 8.476562 C 9.929688 8.378906 10.003906 8.367188 7.960938 8.988281 C 7.652344 9.082031 7.296875 9.144531 7.164062 9.128906 C 7.003906 9.117188 6.917969 9.179688 6.929688 9.308594 C 6.941406 9.476562 6.90625 9.488281 6.660156 9.378906 C 6.304688 9.214844 6.28125 8.929688 6.613281 8.84375 C 6.746094 8.808594 6.855469 8.726562 6.855469 8.652344 C 6.855469 8.5 7.492188 7.976562 7.6875 7.976562 C 7.761719 7.976562 7.835938 7.941406 7.835938 7.878906 C 7.835938 7.726562 9.367188 7.285156 10.53125 7.105469 C 10.703125 7.082031 11.007812 6.988281 11.203125 6.917969 C 11.414062 6.832031 12.160156 6.738281 12.894531 6.714844 C 13.617188 6.703125 14.253906 6.652344 14.316406 6.605469 C 14.375 6.570312 14.753906 6.617188 15.171875 6.714844 C 15.574219 6.808594 15.929688 6.84375 15.96875 6.808594 C 16.003906 6.773438 16.039062 6.808594 16.039062 6.890625 C 16.039062 6.976562 16.101562 7 16.164062 6.964844 C 16.238281 6.929688 16.285156 6.953125 16.285156 7.011719 C 16.285156 7.191406 16.777344 7.175781 16.789062 6.988281 C 16.789062 6.917969 16.847656 6.976562 16.921875 7.140625 C 17.03125 7.402344 17.058594 7.417969 17.179688 7.238281 C 17.300781 7.058594 17.328125 7.058594 17.535156 7.285156 C 17.65625 7.429688 17.753906 7.488281 17.753906 7.441406 C 17.753906 7.390625 17.863281 7.441406 18.011719 7.570312 C 18.160156 7.691406 18.304688 7.773438 18.355469 7.75 C 18.390625 7.726562 18.488281 7.808594 18.550781 7.941406 C 18.722656 8.261719 18.992188 8 18.90625 7.582031 C 18.867188 7.332031 18.894531 7.296875 19.113281 7.34375 C 19.25 7.378906 19.421875 7.523438 19.46875 7.664062 C 19.578125 7.917969 19.578125 7.917969 19.578125 7.640625 C 19.59375 7.390625 19.835938 7.25 19.835938 7.5 C 19.835938 7.558594 19.921875 7.617188 20.019531 7.617188 C 20.117188 7.617188 20.203125 7.570312 20.203125 7.511719 C 20.203125 7.320312 20.695312 7.273438 20.792969 7.464844 C 20.878906 7.605469 20.988281 7.546875 21.332031 7.152344 C 21.867188 6.546875 22.101562 5.796875 22.003906 4.964844 C 21.808594 3.175781 21 2.117188 19.164062 1.238281 C 17.730469 0.546875 17.09375 0.484375 14.925781 0.890625 Z M 18.671875 7.617188 C 18.636719 7.675781 18.660156 7.738281 18.746094 7.738281 C 18.832031 7.738281 18.867188 7.773438 18.820312 7.808594 C 18.710938 7.917969 18.476562 7.738281 18.550781 7.605469 C 18.601562 7.546875 18.648438 7.5 18.683594 7.5 C 18.722656 7.5 18.710938 7.546875 18.671875 7.617188 Z M 6.195312 9.226562 C 6.136719 9.464844 6.160156 9.523438 6.367188 9.523438 C 6.503906 9.523438 6.613281 9.582031 6.613281 9.65625 C 6.613281 9.714844 6.5625 9.75 6.503906 9.714844 C 6.441406 9.679688 6.355469 9.761719 6.304688 9.914062 L 6.21875 10.179688 L 6.121094 9.878906 C 6.074219 9.714844 6.023438 9.65625 6.011719 9.726562 C 6 9.808594 5.9375 9.878906 5.863281 9.878906 C 5.804688 9.878906 5.765625 9.832031 5.816406 9.773438 C 5.851562 9.714844 5.828125 9.628906 5.753906 9.582031 C 5.695312 9.546875 5.632812 9.453125 5.632812 9.378906 C 5.632812 9.308594 5.667969 9.285156 5.71875 9.320312 C 5.753906 9.367188 5.863281 9.296875 5.964844 9.167969 C 6.195312 8.84375 6.28125 8.867188 6.195312 9.226562 Z M 5.082031 10.238281 C 5.117188 10.296875 5.105469 10.355469 5.03125 10.355469 C 4.972656 10.355469 4.875 10.296875 4.835938 10.238281 C 4.800781 10.167969 4.8125 10.117188 4.886719 10.117188 C 4.945312 10.117188 5.042969 10.167969 5.082031 10.238281 Z M 3.734375 10.714844 C 3.539062 10.761719 3.257812 10.808594 3.121094 10.808594 L 2.878906 10.820312 L 3.121094 10.714844 C 3.257812 10.65625 3.539062 10.617188 3.734375 10.617188 L 4.101562 10.617188 Z M 11.570312 11.058594 C 11.609375 11.117188 11.582031 11.203125 11.511719 11.25 C 11.449219 11.285156 11.386719 11.238281 11.386719 11.140625 C 11.386719 10.929688 11.460938 10.890625 11.570312 11.058594 Z M 11.570312 11.058594 "/>
<path style=" stroke:none;fill-rule:nonzero;fill:rgb(0%,0%,0%);fill-opacity:1;" d="M 16.714844 7.5 C 16.675781 7.558594 16.726562 7.617188 16.835938 7.617188 C 16.945312 7.617188 16.996094 7.558594 16.960938 7.5 C 16.921875 7.429688 16.859375 7.378906 16.835938 7.378906 C 16.8125 7.378906 16.75 7.429688 16.714844 7.5 Z M 16.714844 7.5 "/>
<path style=" stroke:none;fill-rule:nonzero;fill:rgb(0%,0%,0%);fill-opacity:1;" d="M 17.816406 7.738281 C 17.730469 7.867188 18.085938 8.046875 18.207031 7.929688 C 18.257812 7.890625 18.195312 7.855469 18.074219 7.855469 C 17.964844 7.855469 17.902344 7.796875 17.9375 7.738281 C 17.976562 7.664062 17.988281 7.617188 17.953125 7.617188 C 17.914062 7.617188 17.851562 7.675781 17.816406 7.738281 Z M 17.816406 7.738281 "/>
<path style=" stroke:none;fill-rule:nonzero;fill:rgb(0%,0%,0%);fill-opacity:1;" d="M 19.960938 7.820312 C 19.960938 7.867188 20.019531 8 20.082031 8.09375 C 20.179688 8.25 20.203125 8.25 20.203125 8.070312 C 20.203125 7.964844 20.15625 7.832031 20.082031 7.796875 C 20.019531 7.761719 19.960938 7.761719 19.960938 7.820312 Z M 19.960938 7.820312 "/>
<path style=" stroke:none;fill-rule:nonzero;fill:rgb(0%,0%,0%);fill-opacity:1;" d="M 20.472656 8.214844 C 20.472656 8.378906 20.496094 8.441406 20.535156 8.355469 C 20.558594 8.285156 20.558594 8.140625 20.535156 8.058594 C 20.496094 7.988281 20.472656 8.046875 20.472656 8.214844 Z M 20.472656 8.214844 "/>
<path style=" stroke:none;fill-rule:nonzero;fill:rgb(0%,0%,0%);fill-opacity:1;" d="M 20.09375 9.117188 C 20.09375 9.25 20.132812 9.285156 20.167969 9.1875 C 20.203125 9.105469 20.191406 9 20.15625 8.964844 C 20.117188 8.914062 20.082031 8.988281 20.09375 9.117188 Z M 20.09375 9.117188 "/>
<path style=" stroke:none;fill-rule:nonzero;fill:rgb(0%,0%,0%);fill-opacity:1;" d="M 18.390625 9.691406 C 18.195312 9.902344 18 10.285156 17.953125 10.523438 C 17.878906 10.890625 17.914062 11.023438 18.171875 11.320312 C 18.34375 11.511719 18.453125 11.75 18.402344 11.84375 C 18.355469 11.976562 18.390625 12 18.539062 11.953125 C 18.660156 11.90625 18.757812 11.953125 18.808594 12.082031 C 18.867188 12.238281 18.917969 12.25 18.992188 12.117188 C 19.078125 12 19.125 12.035156 19.175781 12.238281 C 19.25 12.5 19.554688 12.535156 19.507812 12.273438 C 19.480469 12.203125 19.554688 12.140625 19.652344 12.140625 C 19.875 12.140625 19.886719 11.84375 19.703125 11.332031 C 19.59375 11.011719 19.519531 10.976562 19.25 11.023438 C 19.066406 11.046875 18.832031 11.023438 18.734375 10.953125 C 18.574219 10.84375 18.574219 10.820312 18.734375 10.714844 C 18.96875 10.558594 19.101562 10.558594 19.101562 10.714844 C 19.101562 10.773438 19.210938 10.832031 19.347656 10.832031 C 19.554688 10.832031 19.578125 10.785156 19.519531 10.5 C 19.46875 10.320312 19.371094 10.140625 19.296875 10.09375 C 19.210938 10.035156 19.238281 10 19.359375 10 C 19.6875 10 20.058594 11.023438 20.09375 12.082031 C 20.132812 13.082031 19.972656 13.605469 19.554688 13.90625 C 19.433594 14 19.238281 14.167969 19.125 14.285156 C 18.90625 14.511719 18.574219 14.667969 17.976562 14.808594 C 17.644531 14.878906 17.632812 14.867188 17.632812 14.417969 C 17.632812 13.988281 17.667969 13.941406 18.011719 13.867188 C 18.378906 13.785156 18.378906 13.785156 18.160156 13.546875 C 17.78125 13.140625 17.570312 13.082031 17.15625 13.285156 C 16.945312 13.378906 16.777344 13.523438 16.777344 13.582031 C 16.777344 13.773438 17.042969 14.214844 17.203125 14.308594 C 17.511719 14.488281 17.644531 16.070312 17.375 16.167969 C 17.316406 16.191406 17.289062 16.261719 17.339844 16.320312 C 17.375 16.378906 17.316406 16.429688 17.214844 16.429688 C 17.105469 16.429688 17.019531 16.464844 17.019531 16.523438 C 17.019531 16.570312 16.898438 16.667969 16.75 16.726562 C 16.59375 16.796875 16.480469 16.929688 16.480469 17.035156 C 16.492188 17.167969 16.421875 17.214844 16.273438 17.179688 C 16.113281 17.132812 16.039062 17.179688 16.039062 17.308594 C 16.039062 17.417969 15.992188 17.5 15.929688 17.5 C 15.867188 17.5 15.773438 17.605469 15.734375 17.75 C 15.660156 17.941406 15.585938 17.976562 15.292969 17.917969 C 15.0625 17.871094 14.9375 17.882812 14.9375 17.976562 C 14.9375 18.058594 14.851562 18.082031 14.742188 18.046875 C 14.621094 18 14.425781 18.058594 14.289062 18.179688 C 14.15625 18.296875 14.082031 18.320312 14.132812 18.25 C 14.191406 18.144531 14.15625 18.117188 14.019531 18.167969 C 13.886719 18.226562 13.859375 18.285156 13.960938 18.394531 C 14.105469 18.570312 13.875 19.203125 13.703125 19.09375 C 13.640625 19.058594 13.59375 19.117188 13.59375 19.226562 C 13.59375 19.382812 13.027344 19.703125 12.867188 19.644531 C 12.84375 19.632812 12.722656 19.773438 12.585938 19.964844 C 12.429688 20.167969 12.378906 20.203125 12.429688 20.058594 C 12.601562 19.570312 12.636719 18.953125 12.488281 18.738281 C 12.367188 18.546875 12.355469 18.546875 12.417969 18.714844 C 12.453125 18.859375 12.417969 18.929688 12.292969 18.929688 C 12.171875 18.929688 12.136719 19.011719 12.195312 19.226562 C 12.246094 19.40625 12.21875 19.523438 12.136719 19.523438 C 12.0625 19.523438 12 19.597656 12 19.679688 C 12 19.761719 11.839844 20.023438 11.632812 20.238281 C 11.4375 20.453125 11.265625 20.679688 11.265625 20.738281 C 11.265625 20.785156 11.132812 20.859375 10.960938 20.90625 C 10.789062 20.941406 10.652344 21.023438 10.652344 21.070312 C 10.652344 21.121094 10.480469 21.191406 10.285156 21.214844 C 10.027344 21.25 9.855469 21.203125 9.710938 21.046875 C 9.464844 20.785156 9.378906 20.785156 9.121094 21.023438 C 8.9375 21.203125 8.914062 21.203125 8.753906 20.988281 C 8.582031 20.761719 8.535156 20.75 7.566406 20.820312 C 7.507812 20.832031 7.46875 20.941406 7.46875 21.070312 C 7.46875 21.191406 7.382812 21.34375 7.273438 21.40625 C 7.113281 21.488281 7.140625 21.558594 7.46875 21.820312 C 7.675781 22 7.984375 22.144531 8.144531 22.144531 C 8.558594 22.144531 9.992188 23.203125 10.152344 23.621094 C 10.222656 23.808594 10.285156 24.121094 10.285156 24.296875 C 10.285156 24.714844 10.027344 24.75 9.355469 24.429688 C 9.085938 24.308594 8.878906 24.273438 8.851562 24.347656 C 8.828125 24.40625 8.65625 24.703125 8.460938 24.988281 C 8.15625 25.429688 7.984375 25.550781 7.324219 25.761719 L 6.550781 26.011719 L 6.515625 26.535156 C 6.488281 26.808594 6.527344 27.191406 6.585938 27.382812 C 6.683594 27.632812 6.660156 27.824219 6.476562 28.214844 C 6.246094 28.714844 6 29.882812 6 30.5 L 6 30.835938 L 8.695312 30.835938 L 8.695312 29.882812 C 8.695312 29.023438 8.71875 28.929688 8.976562 28.800781 C 9.121094 28.714844 9.488281 28.453125 9.785156 28.191406 C 10.480469 27.609375 10.652344 27.609375 10.617188 28.214844 C 10.59375 28.476562 10.605469 28.691406 10.617188 28.691406 C 10.640625 28.691406 10.738281 28.476562 10.847656 28.214844 C 11.042969 27.726562 11.351562 27.5625 11.839844 27.644531 C 11.976562 27.667969 12.171875 27.609375 12.28125 27.523438 C 12.503906 27.335938 12.5625 27.417969 12.796875 28.179688 C 13.054688 29.097656 13.296875 29.644531 13.507812 29.859375 C 13.703125 30.039062 13.714844 30.039062 13.714844 29.773438 C 13.714844 29.609375 13.984375 29.226562 14.425781 28.773438 C 15.234375 27.941406 15.867188 27.085938 15.980469 26.65625 C 16.039062 26.40625 15.992188 26.347656 15.464844 26.167969 C 15.074219 26.035156 14.863281 25.882812 14.839844 25.75 C 14.78125 25.144531 14.65625 24.644531 14.570312 24.644531 C 14.523438 24.644531 14.472656 24.335938 14.472656 23.953125 L 14.472656 23.273438 L 16.015625 22.070312 C 17.78125 20.714844 18.453125 19.976562 19.445312 18.273438 C 20.214844 16.964844 20.167969 17.261719 20.03125 14.65625 C 19.984375 13.652344 19.996094 13.5 20.253906 13.105469 C 20.582031 12.59375 20.695312 12.226562 20.804688 11.226562 C 20.878906 10.617188 20.863281 10.511719 20.730469 10.617188 C 20.609375 10.714844 20.582031 10.703125 20.644531 10.546875 C 20.695312 10.441406 20.65625 10.355469 20.570312 10.355469 C 20.484375 10.355469 20.449219 10.285156 20.484375 10.191406 C 20.558594 10.011719 20.214844 9.640625 19.996094 9.640625 C 19.921875 9.640625 19.800781 9.558594 19.714844 9.464844 C 19.433594 9.128906 18.796875 9.238281 18.390625 9.691406 Z M 20.316406 12.667969 C 20.203125 12.761719 20.191406 12.726562 20.253906 12.5 C 20.289062 12.332031 20.328125 12.117188 20.339844 12.023438 C 20.351562 11.929688 20.386719 12 20.414062 12.191406 C 20.449219 12.382812 20.398438 12.59375 20.316406 12.667969 Z M 18.515625 16.09375 C 18.488281 16.417969 18.417969 16.644531 18.355469 16.605469 C 18.304688 16.570312 18.28125 16.367188 18.320312 16.15625 C 18.476562 15.273438 18.601562 15.238281 18.515625 16.09375 Z M 17.878906 16.429688 C 17.878906 16.488281 17.816406 16.546875 17.742188 16.546875 C 17.679688 16.546875 17.65625 16.488281 17.695312 16.429688 C 17.730469 16.355469 17.792969 16.308594 17.828125 16.308594 C 17.851562 16.308594 17.878906 16.355469 17.878906 16.429688 Z M 17.339844 16.738281 C 17.300781 16.847656 17.265625 16.953125 17.265625 16.976562 C 17.265625 17 17.203125 17.023438 17.132812 17.023438 C 17.03125 17.023438 17.019531 16.976562 17.132812 16.871094 C 17.203125 16.773438 17.226562 16.667969 17.179688 16.632812 C 17.144531 16.582031 17.167969 16.546875 17.253906 16.546875 C 17.351562 16.546875 17.386719 16.621094 17.339844 16.738281 Z M 18.085938 16.90625 C 18.035156 17.105469 18.0625 17.261719 18.121094 17.261719 C 18.195312 17.261719 18.246094 17.203125 18.246094 17.144531 C 18.246094 17.070312 18.304688 17.023438 18.367188 17.023438 C 18.5625 17.023438 18.515625 17.382812 18.304688 17.453125 C 18.171875 17.511719 18.148438 17.570312 18.246094 17.679688 C 18.390625 17.847656 18.28125 18.25 18.109375 18.144531 C 18.046875 18.105469 18 18.167969 18 18.273438 C 18 18.382812 18.0625 18.429688 18.136719 18.382812 C 18.21875 18.332031 18.246094 18.394531 18.21875 18.523438 C 18.195312 18.65625 18.097656 18.738281 18.011719 18.714844 C 17.902344 18.691406 17.902344 18.75 18 18.917969 C 18.121094 19.167969 18.046875 19.523438 17.863281 19.523438 C 17.804688 19.523438 17.765625 19.558594 17.765625 19.609375 C 17.816406 19.90625 17.71875 20 17.363281 20 C 17.019531 20 16.996094 20.023438 17.179688 20.144531 C 17.363281 20.285156 17.351562 20.320312 17.082031 20.558594 C 16.910156 20.703125 16.777344 20.75 16.777344 20.679688 C 16.777344 20.597656 16.726562 20.609375 16.652344 20.714844 C 16.578125 20.820312 16.53125 20.832031 16.53125 20.75 C 16.53125 20.679688 16.59375 20.570312 16.664062 20.523438 C 16.738281 20.488281 16.777344 20.34375 16.738281 20.226562 C 16.703125 20.097656 16.738281 20 16.800781 20 C 16.886719 20 16.886719 19.953125 16.800781 19.84375 C 16.652344 19.679688 16.75 19.046875 16.910156 19.046875 C 16.972656 19.046875 17.019531 18.964844 17.019531 18.871094 C 17.019531 18.773438 17.082031 18.691406 17.144531 18.691406 C 17.214844 18.691406 17.265625 18.617188 17.253906 18.535156 C 17.214844 18.238281 17.265625 18.09375 17.414062 18.117188 C 17.496094 18.144531 17.582031 18.023438 17.609375 17.859375 C 17.632812 17.621094 17.621094 17.59375 17.523438 17.738281 C 17.316406 18.023438 17.363281 17.703125 17.582031 17.25 C 17.964844 16.488281 18.195312 16.332031 18.085938 16.90625 Z M 16.898438 17.191406 C 16.898438 17.226562 16.847656 17.285156 16.777344 17.320312 C 16.714844 17.359375 16.652344 17.332031 16.652344 17.273438 C 16.652344 17.203125 16.714844 17.144531 16.777344 17.144531 C 16.847656 17.144531 16.898438 17.167969 16.898438 17.191406 Z M 14.328125 19.105469 C 14.328125 19.203125 14.242188 19.285156 14.144531 19.285156 C 14.03125 19.285156 13.996094 19.214844 14.03125 19.105469 C 14.082031 19.011719 14.15625 18.929688 14.214844 18.929688 C 14.277344 18.929688 14.328125 19.011719 14.328125 19.105469 Z M 16.652344 19.285156 C 16.652344 19.34375 16.605469 19.40625 16.53125 19.40625 C 16.46875 19.40625 16.40625 19.34375 16.40625 19.285156 C 16.40625 19.214844 16.46875 19.167969 16.53125 19.167969 C 16.605469 19.167969 16.652344 19.214844 16.652344 19.285156 Z M 14.203125 19.511719 C 14.203125 19.585938 14.15625 19.667969 14.082031 19.703125 C 14.019531 19.738281 13.960938 19.691406 13.960938 19.597656 C 13.960938 19.488281 14.019531 19.40625 14.082031 19.40625 C 14.15625 19.40625 14.203125 19.453125 14.203125 19.511719 Z M 16.445312 20.488281 C 16.347656 20.585938 16.285156 20.570312 16.222656 20.464844 C 16.164062 20.371094 16.175781 20.34375 16.261719 20.40625 C 16.347656 20.453125 16.40625 20.429688 16.40625 20.34375 C 16.40625 20.261719 16.445312 20.238281 16.492188 20.273438 C 16.542969 20.320312 16.519531 20.417969 16.445312 20.488281 Z M 10.984375 24.179688 C 10.960938 24.285156 11.03125 24.429688 11.15625 24.511719 C 11.363281 24.632812 11.484375 25 11.316406 25 C 11.179688 25 10.714844 24.726562 10.628906 24.597656 C 10.578125 24.523438 10.53125 24.285156 10.53125 24.070312 C 10.53125 23.714844 10.542969 23.703125 10.777344 23.835938 C 10.921875 23.917969 11.007812 24.070312 10.984375 24.179688 Z M 11.816406 24.871094 C 11.851562 24.929688 11.828125 25.011719 11.753906 25.0625 C 11.695312 25.097656 11.632812 25.050781 11.632812 24.953125 C 11.632812 24.738281 11.707031 24.703125 11.816406 24.871094 Z M 11.816406 24.871094 "/>
<path style=" stroke:none;fill-rule:nonzero;fill:rgb(0%,0%,0%);fill-opacity:1;" d="M 17.570312 19.167969 C 17.375 19.25 17.363281 19.273438 17.535156 19.273438 C 17.644531 19.285156 17.78125 19.226562 17.816406 19.167969 C 17.902344 19.035156 17.902344 19.035156 17.570312 19.167969 Z M 17.570312 19.167969 "/>
<path style=" stroke:none;fill-rule:nonzero;fill:rgb(0%,0%,0%);fill-opacity:1;" d="M 18.269531 12.535156 C 18.121094 12.785156 18 13.046875 18 13.105469 C 18 13.285156 18.527344 13.191406 18.585938 13 C 18.613281 12.90625 18.5625 12.882812 18.402344 12.941406 C 18.207031 13.011719 18.207031 13 18.355469 12.820312 C 18.441406 12.714844 18.5625 12.640625 18.613281 12.679688 C 18.660156 12.714844 18.785156 12.640625 18.867188 12.535156 C 19.015625 12.355469 19.015625 12.34375 18.832031 12.417969 C 18.699219 12.464844 18.613281 12.417969 18.585938 12.285156 C 18.5625 12.140625 18.464844 12.214844 18.269531 12.535156 Z M 18.269531 12.535156 "/>
<path style=" stroke:none;fill-rule:nonzero;fill:rgb(0%,0%,0%);fill-opacity:1;" d="M 15.660156 12.34375 C 15.648438 12.40625 15.648438 12.488281 15.660156 12.535156 C 15.671875 12.59375 15.613281 12.59375 15.539062 12.546875 C 15.464844 12.511719 15.355469 12.546875 15.292969 12.628906 C 15.160156 12.832031 15.148438 13.105469 15.28125 13.070312 C 15.332031 13.058594 15.488281 13.105469 15.648438 13.191406 C 15.992188 13.378906 16.164062 13.285156 16.164062 12.90625 C 16.164062 12.535156 15.710938 12.035156 15.660156 12.34375 Z M 15.660156 12.34375 "/>
<path style=" stroke:none;fill-rule:nonzero;fill:rgb(0%,0%,0%);fill-opacity:1;" d="M 9.992188 12.894531 C 9.796875 13.035156 9.808594 13.046875 10.199219 13.046875 C 10.53125 13.035156 10.605469 13 10.507812 12.894531 C 10.347656 12.703125 10.261719 12.703125 9.992188 12.894531 Z M 9.992188 12.894531 "/>
<path style=" stroke:none;fill-rule:nonzero;fill:rgb(0%,0%,0%);fill-opacity:1;" d="M 14.535156 13.167969 C 14.414062 13.320312 14.363281 13.453125 14.425781 13.453125 C 14.582031 13.453125 14.851562 13.128906 14.792969 12.988281 C 14.78125 12.929688 14.65625 13.011719 14.535156 13.167969 Z M 14.535156 13.167969 "/>
<path style=" stroke:none;fill-rule:nonzero;fill:rgb(0%,0%,0%);fill-opacity:1;" d="M 16.40625 13.035156 C 16.40625 13.128906 16.492188 13.214844 16.59375 13.214844 C 16.703125 13.214844 16.738281 13.140625 16.703125 13.035156 C 16.652344 12.941406 16.578125 12.855469 16.519531 12.855469 C 16.457031 12.855469 16.40625 12.941406 16.40625 13.035156 Z M 16.40625 13.035156 "/>
<path style=" stroke:none;fill-rule:nonzero;fill:rgb(0%,0%,0%);fill-opacity:1;" d="M 19.59375 13.046875 C 19.347656 13.179688 19.335938 13.214844 19.507812 13.214844 C 19.628906 13.214844 19.8125 13.128906 19.910156 13.035156 C 20.144531 12.820312 20.007812 12.820312 19.59375 13.046875 Z M 19.59375 13.046875 "/>
<path style=" stroke:none;fill-rule:nonzero;fill:rgb(0%,0%,0%);fill-opacity:1;" d="M 15.0625 13.332031 C 15.0625 13.394531 15.121094 13.453125 15.183594 13.453125 C 15.257812 13.453125 15.304688 13.394531 15.304688 13.332031 C 15.304688 13.261719 15.257812 13.214844 15.183594 13.214844 C 15.121094 13.214844 15.0625 13.261719 15.0625 13.332031 Z M 15.0625 13.332031 "/>
<path style=" stroke:none;fill-rule:nonzero;fill:rgb(0%,0%,0%);fill-opacity:1;" d="M 4.664062 13.917969 C 4.566406 13.988281 4.554688 14.046875 4.628906 14.09375 C 4.703125 14.128906 4.800781 14.105469 4.835938 14.035156 C 4.945312 13.867188 4.859375 13.796875 4.664062 13.917969 Z M 4.664062 13.917969 "/>
<path style=" stroke:none;fill-rule:nonzero;fill:rgb(0%,0%,0%);fill-opacity:1;" d="M 8.375 14.140625 C 8.253906 14.320312 8.191406 14.320312 7.8125 14.191406 C 7.382812 14.046875 6.660156 14.105469 6.539062 14.296875 C 6.453125 14.441406 5.914062 14.429688 5.621094 14.285156 C 5.4375 14.179688 5.386719 14.203125 5.386719 14.34375 C 5.386719 14.453125 5.339844 14.5 5.265625 14.464844 C 5.203125 14.429688 5.144531 14.441406 5.144531 14.511719 C 5.144531 14.570312 5.242188 14.691406 5.363281 14.761719 C 5.546875 14.878906 5.546875 14.894531 5.300781 14.84375 C 5.105469 14.796875 5.019531 14.855469 4.960938 15.082031 C 4.875 15.441406 4.972656 15.570312 5.167969 15.378906 C 5.425781 15.132812 5.878906 15.226562 6.269531 15.621094 C 6.488281 15.832031 6.625 15.917969 6.585938 15.808594 C 6.539062 15.691406 6.601562 15.5 6.746094 15.34375 C 6.867188 15.203125 6.980469 15.132812 6.980469 15.191406 C 6.980469 15.261719 6.90625 15.378906 6.832031 15.476562 C 6.746094 15.570312 6.796875 15.546875 6.957031 15.429688 C 7.101562 15.296875 7.222656 15.132812 7.222656 15.046875 C 7.222656 14.964844 7.273438 14.855469 7.347656 14.820312 C 7.421875 14.773438 7.433594 14.832031 7.394531 14.964844 C 7.335938 15.167969 7.335938 15.167969 7.507812 14.964844 C 7.6875 14.75 8.082031 14.691406 8.082031 14.878906 C 8.082031 14.941406 8.144531 15 8.214844 15 C 8.277344 15 8.300781 14.941406 8.265625 14.878906 C 8.226562 14.808594 8.265625 14.726562 8.375 14.691406 C 8.609375 14.605469 8.679688 14.40625 8.582031 14.140625 C 8.511719 13.941406 8.496094 13.941406 8.375 14.140625 Z M 8.375 14.140625 "/>
<path style=" stroke:none;fill-rule:nonzero;fill:rgb(0%,0%,0%);fill-opacity:1;" d="M 12.378906 15.832031 C 12.503906 16.082031 12.613281 16.34375 12.613281 16.417969 C 12.613281 16.476562 12.660156 16.558594 12.722656 16.605469 C 12.796875 16.644531 12.820312 16.523438 12.796875 16.34375 C 12.773438 16.15625 12.746094 15.976562 12.746094 15.941406 C 12.734375 15.84375 12.292969 15.355469 12.207031 15.355469 C 12.171875 15.355469 12.246094 15.570312 12.378906 15.832031 Z M 12.378906 15.832031 "/>
<path style=" stroke:none;fill-rule:nonzero;fill:rgb(0%,0%,0%);fill-opacity:1;" d="M 7.347656 15.570312 C 7.347656 15.65625 7.261719 15.714844 7.152344 15.714844 C 7.003906 15.714844 6.980469 15.796875 7.039062 16.082031 C 7.101562 16.332031 7.089844 16.429688 7.003906 16.378906 C 6.929688 16.34375 6.796875 16.378906 6.699219 16.476562 C 6.601562 16.570312 6.476562 16.621094 6.429688 16.570312 C 6.378906 16.523438 6.355469 16.570312 6.378906 16.667969 C 6.441406 16.929688 6.109375 17.371094 5.914062 17.296875 C 5.828125 17.261719 5.753906 17.167969 5.753906 17.070312 C 5.753906 16.976562 5.707031 16.90625 5.632812 16.90625 C 5.570312 16.90625 5.511719 16.929688 5.511719 16.964844 C 5.511719 17.09375 5.804688 17.621094 5.878906 17.621094 C 5.976562 17.621094 6.160156 18.082031 6.136719 18.238281 C 6.121094 18.296875 6.171875 18.332031 6.234375 18.332031 C 6.292969 18.332031 6.378906 18.476562 6.402344 18.65625 C 6.441406 18.941406 6.453125 18.929688 6.476562 18.570312 C 6.515625 17.761719 6.574219 17.679688 7.140625 17.679688 C 7.421875 17.679688 7.960938 17.582031 8.328125 17.476562 C 8.695312 17.359375 9.207031 17.25 9.453125 17.226562 C 9.710938 17.203125 9.957031 17.144531 10.003906 17.105469 C 10.125 16.988281 10.800781 17.011719 10.726562 17.132812 C 10.6875 17.191406 10.800781 17.226562 10.972656 17.226562 C 11.265625 17.226562 11.277344 17.203125 11.214844 16.871094 C 11.132812 16.429688 11.117188 16.417969 10.800781 16.394531 C 10.640625 16.378906 10.578125 16.332031 10.652344 16.25 C 10.761719 16.132812 10.101562 16.082031 9.980469 16.214844 C 9.941406 16.25 9.660156 16.261719 9.34375 16.238281 C 8.925781 16.203125 8.742188 16.25 8.632812 16.394531 C 8.484375 16.582031 8.460938 16.582031 8.277344 16.40625 C 8.03125 16.15625 8.03125 16.09375 8.300781 16.046875 C 8.472656 16.011719 8.460938 15.988281 8.226562 15.929688 C 8.058594 15.878906 7.984375 15.90625 8.03125 15.976562 C 8.082031 16.046875 8.042969 16.070312 7.945312 16.046875 C 7.847656 16.011719 7.652344 16.035156 7.507812 16.082031 C 7.175781 16.203125 7.054688 15.953125 7.335938 15.75 C 7.445312 15.679688 7.492188 15.570312 7.433594 15.523438 C 7.382812 15.476562 7.347656 15.5 7.347656 15.570312 Z M 10.199219 16.523438 C 9.980469 16.582031 9.867188 16.488281 9.980469 16.320312 C 10.027344 16.238281 10.101562 16.238281 10.222656 16.34375 C 10.359375 16.464844 10.359375 16.5 10.199219 16.523438 Z M 10.199219 16.523438 "/>
<path style=" stroke:none;fill-rule:nonzero;fill:rgb(0%,0%,0%);fill-opacity:1;" d="M 5.019531 15.84375 C 5.019531 15.90625 5.082031 15.929688 5.144531 15.894531 C 5.214844 15.855469 5.265625 15.796875 5.265625 15.761719 C 5.265625 15.738281 5.214844 15.714844 5.144531 15.714844 C 5.082031 15.714844 5.019531 15.773438 5.019531 15.84375 Z M 5.019531 15.84375 "/>
<path style=" stroke:none;fill-rule:nonzero;fill:rgb(0%,0%,0%);fill-opacity:1;" d="M 6.121094 16.308594 C 6.121094 16.367188 6.207031 16.429688 6.320312 16.429688 C 6.417969 16.429688 6.464844 16.367188 6.429688 16.308594 C 6.390625 16.238281 6.304688 16.191406 6.234375 16.191406 C 6.171875 16.191406 6.121094 16.238281 6.121094 16.308594 Z M 6.121094 16.308594 "/>
<path style=" stroke:none;fill-rule:nonzero;fill:rgb(0%,0%,0%);fill-opacity:1;" d="M 8.9375 17.5 C 8.828125 17.570312 8.816406 17.621094 8.902344 17.621094 C 8.976562 17.621094 9.085938 17.558594 9.121094 17.5 C 9.21875 17.359375 9.171875 17.359375 8.9375 17.5 Z M 8.9375 17.5 "/>
<path style=" stroke:none;fill-rule:nonzero;fill:rgb(0%,0%,0%);fill-opacity:1;" d="M 20.976562 18.84375 C 20.925781 19.738281 18.867188 25 18.148438 26.074219 C 17.964844 26.335938 15.917969 30.679688 15.917969 30.789062 C 15.917969 30.8125 17.742188 30.835938 19.960938 30.835938 L 24 30.835938 L 24 20.894531 L 23.316406 20.476562 C 22.886719 20.214844 22.394531 19.75 21.96875 19.191406 C 21.601562 18.726562 21.234375 18.332031 21.148438 18.332031 C 21.0625 18.332031 20.988281 18.546875 20.976562 18.84375 Z M 23.632812 28.214844 C 23.632812 28.277344 23.546875 28.300781 23.449219 28.261719 C 23.351562 28.214844 23.265625 28.167969 23.265625 28.144531 C 23.265625 28.121094 23.351562 28.097656 23.449219 28.097656 C 23.546875 28.097656 23.632812 28.144531 23.632812 28.214844 Z M 19.519531 28.476562 C 19.421875 28.773438 18.601562 29.871094 18.464844 29.871094 C 18.257812 29.894531 18.390625 29.632812 18.917969 29.035156 C 19.222656 28.691406 19.46875 28.371094 19.46875 28.3125 C 19.46875 28.261719 19.507812 28.214844 19.542969 28.214844 C 19.578125 28.214844 19.566406 28.335938 19.519531 28.476562 Z M 19.886719 28.597656 C 19.8125 28.714844 19.835938 28.714844 19.972656 28.597656 C 20.167969 28.429688 20.496094 28.40625 20.386719 28.574219 C 20.351562 28.632812 20.363281 28.691406 20.4375 28.691406 C 20.496094 28.691406 20.597656 28.632812 20.644531 28.5625 C 20.707031 28.464844 20.753906 28.476562 20.816406 28.574219 C 20.878906 28.667969 21 28.691406 21.136719 28.632812 C 21.527344 28.464844 21.917969 28.453125 21.917969 28.621094 C 21.917969 28.726562 21.585938 28.773438 20.753906 28.800781 C 19.703125 28.824219 19.445312 28.75 19.675781 28.535156 C 19.8125 28.394531 19.972656 28.441406 19.886719 28.597656 Z M 22.347656 28.574219 C 22.3125 28.632812 22.324219 28.691406 22.394531 28.691406 C 22.457031 28.691406 22.554688 28.632812 22.59375 28.574219 C 22.628906 28.5 22.726562 28.453125 22.789062 28.453125 C 22.859375 28.453125 22.886719 28.5 22.847656 28.5625 C 22.800781 28.621094 22.847656 28.703125 22.921875 28.726562 C 23.007812 28.761719 22.847656 28.800781 22.566406 28.800781 C 22.078125 28.8125 21.929688 28.714844 22.125 28.535156 C 22.25 28.40625 22.433594 28.441406 22.347656 28.574219 Z M 21.246094 29.644531 C 21.246094 29.835938 21.171875 29.953125 21.023438 29.976562 C 20.792969 30.027344 20.632812 29.738281 20.742188 29.453125 C 20.851562 29.15625 21.246094 29.300781 21.246094 29.644531 Z M 22.140625 29.621094 C 22.1875 29.953125 21.84375 30.097656 21.585938 29.847656 C 21.417969 29.691406 21.417969 29.621094 21.550781 29.464844 C 21.773438 29.203125 22.089844 29.289062 22.140625 29.621094 Z M 22.945312 29.464844 C 23.042969 29.738281 22.898438 30 22.640625 30 C 22.507812 30 22.371094 29.917969 22.335938 29.824219 C 22.222656 29.546875 22.371094 29.289062 22.640625 29.289062 C 22.761719 29.289062 22.898438 29.371094 22.945312 29.464844 Z M 22.945312 29.464844 "/>
<path style=" stroke:none;fill-rule:nonzero;fill:rgb(0%,0%,0%);fill-opacity:1;" d="M 20.953125 29.597656 C 20.953125 29.726562 20.988281 29.761719 21.023438 29.667969 C 21.0625 29.585938 21.046875 29.476562 21.011719 29.441406 C 20.976562 29.394531 20.9375 29.464844 20.953125 29.597656 Z M 20.953125 29.597656 "/>
<path style=" stroke:none;fill-rule:nonzero;fill:rgb(0%,0%,0%);fill-opacity:1;" d="M 21.671875 29.644531 C 21.671875 29.703125 21.722656 29.761719 21.785156 29.761719 C 21.855469 29.761719 21.941406 29.703125 21.980469 29.644531 C 22.015625 29.574219 21.96875 29.523438 21.867188 29.523438 C 21.757812 29.523438 21.671875 29.574219 21.671875 29.644531 Z M 21.671875 29.644531 "/>
</g>
</svg>
