<?xml version="1.0" encoding="UTF-8"?>
<svg xmlns="http://www.w3.org/2000/svg" xmlns:xlink="http://www.w3.org/1999/xlink" width="24px" height="23px" viewBox="0 0 24 23" version="1.1">
<g id="surface1">
<path style=" stroke:none;fill-rule:nonzero;fill:rgb(0%,0%,0%);fill-opacity:1;" d="M 2.214844 0.121094 C 2.378906 0.167969 2.671875 0.214844 2.878906 0.226562 C 3.078125 0.238281 3.289062 0.289062 3.324219 0.359375 C 3.359375 0.417969 3.578125 0.480469 3.8125 0.480469 C 4.113281 0.480469 4.207031 0.527344 4.160156 0.648438 C 4.070312 0.886719 4.59375 1.34375 4.953125 1.34375 C 5.324219 1.34375 5.464844 1.796875 5.210938 2.203125 C 5.035156 2.46875 5.035156 2.503906 5.234375 2.683594 C 5.464844 2.898438 5.710938 2.933594 5.710938 2.742188 C 5.710938 2.683594 5.757812 2.648438 5.816406 2.695312 C 5.953125 2.78125 5.921875 3.1875 5.746094 3.59375 C 5.199219 4.910156 5.070312 5.570312 5.09375 6.949219 C 5.117188 7.703125 5.152344 8.46875 5.199219 8.648438 C 5.246094 8.898438 5.222656 8.984375 5.082031 8.984375 C 4.800781 8.984375 4.546875 9.476562 4.546875 10.015625 C 4.546875 10.613281 5.105469 11.773438 5.605469 12.230469 C 5.792969 12.398438 5.945312 12.589844 5.945312 12.648438 C 5.945312 12.710938 5.886719 12.671875 5.816406 12.578125 C 5.722656 12.433594 5.710938 12.46875 5.769531 12.699219 C 5.816406 12.867188 5.929688 13.453125 6.046875 14.015625 C 6.257812 15.117188 6.492188 15.5625 7.003906 15.945312 C 7.292969 16.148438 7.351562 16.160156 7.410156 16.015625 C 7.445312 15.90625 7.386719 15.703125 7.292969 15.539062 C 7.144531 15.308594 7.132812 15.1875 7.246094 14.855469 C 7.339844 14.542969 7.339844 14.433594 7.246094 14.398438 C 7.085938 14.351562 7.203125 14.230469 7.773438 13.8125 C 8.085938 13.585938 8.144531 13.570312 8.203125 13.726562 C 8.25 13.847656 8.167969 14.003906 7.980469 14.160156 C 7.796875 14.304688 7.691406 14.507812 7.691406 14.710938 C 7.691406 14.949219 7.726562 14.984375 7.796875 14.867188 C 7.875 14.734375 7.910156 14.757812 7.957031 14.984375 C 7.980469 15.140625 7.992188 15.058594 7.992188 14.804688 C 7.980469 14.53125 8.039062 14.316406 8.121094 14.289062 C 8.226562 14.253906 8.25 14.339844 8.203125 14.589844 C 8.15625 14.792969 8.191406 14.972656 8.261719 15.023438 C 8.355469 15.082031 8.355469 15.179688 8.261719 15.34375 C 8.074219 15.71875 8.238281 15.765625 8.5625 15.453125 C 8.878906 15.140625 8.972656 15.34375 8.691406 15.726562 C 8.53125 15.957031 8.574219 16.460938 8.75 16.339844 C 8.808594 16.304688 8.820312 16.363281 8.785156 16.460938 C 8.691406 16.722656 8.9375 16.699219 9.078125 16.4375 C 9.191406 16.242188 9.191406 16.242188 9.203125 16.445312 C 9.203125 16.757812 8.914062 16.820312 8.390625 16.601562 C 8.132812 16.496094 7.921875 16.460938 7.921875 16.519531 C 7.921875 16.578125 8.050781 16.664062 8.203125 16.699219 C 8.449219 16.757812 8.472656 16.820312 8.449219 17.320312 C 8.425781 17.621094 8.4375 17.835938 8.472656 17.800781 C 8.585938 17.679688 8.855469 17.980469 8.855469 18.234375 C 8.855469 18.351562 8.902344 18.4375 8.960938 18.386719 C 9.03125 18.351562 9.144531 18.414062 9.226562 18.507812 C 9.308594 18.617188 9.472656 18.820312 9.601562 18.953125 C 9.820312 19.203125 9.820312 19.203125 9.367188 19.117188 C 9.113281 19.070312 8.414062 18.78125 7.808594 18.472656 C 6.574219 17.835938 6.257812 17.476562 6.269531 16.640625 C 6.28125 16.171875 6.269531 16.160156 6.058594 16.351562 C 5.945312 16.460938 5.59375 17 5.300781 17.550781 C 4.605469 18.832031 4.183594 19.285156 2.578125 20.53125 C 1.65625 21.25 1.214844 21.539062 1.121094 21.441406 C 1.0625 21.382812 0.9375 21.324219 0.84375 21.324219 C 0.761719 21.324219 0.609375 21.238281 0.515625 21.144531 C 0.191406 20.808594 0.121094 20.964844 0.121094 21.980469 L 0.121094 23 L 6.816406 23 C 11.207031 23 13.515625 22.964844 13.515625 22.878906 C 13.515625 22.808594 13.617188 22.761719 13.734375 22.761719 C 13.863281 22.761719 14.003906 22.808594 14.039062 22.878906 C 14.074219 22.941406 14.191406 23 14.28125 23 C 14.421875 23 14.433594 22.953125 14.328125 22.75 C 14.15625 22.425781 14.574219 21.441406 14.886719 21.441406 C 14.992188 21.441406 15.167969 21.382812 15.261719 21.3125 C 15.390625 21.214844 15.308594 21.203125 14.945312 21.238281 L 14.457031 21.296875 L 14.621094 20.964844 C 14.855469 20.507812 14.839844 20.484375 14.539062 20.484375 L 14.273438 20.472656 L 14.539062 20.246094 C 14.679688 20.125 14.855469 20.003906 14.921875 19.980469 C 15.003906 19.957031 14.957031 19.777344 14.796875 19.527344 C 14.550781 19.117188 14.539062 19.117188 14.597656 19.429688 C 14.644531 19.765625 14.515625 19.898438 14.410156 19.609375 C 14.375 19.539062 14.339844 19.585938 14.339844 19.742188 C 14.328125 19.898438 14.28125 19.992188 14.210938 19.945312 C 14.15625 19.910156 14.132812 19.800781 14.179688 19.707031 C 14.210938 19.597656 14.179688 19.359375 14.097656 19.167969 C 13.980469 18.878906 13.898438 18.820312 13.710938 18.878906 C 13.523438 18.9375 13.492188 18.914062 13.546875 18.757812 C 13.605469 18.617188 13.585938 18.578125 13.492188 18.640625 C 13.398438 18.699219 13.386719 18.664062 13.433594 18.53125 C 13.46875 18.414062 13.457031 18.328125 13.410156 18.328125 C 13.234375 18.328125 13.152344 18.722656 13.304688 18.820312 C 13.480469 18.9375 13.433594 18.988281 13.023438 19.09375 C 12.710938 19.167969 12.710938 19.15625 12.839844 18.867188 C 12.910156 18.699219 13.011719 18.566406 13.070312 18.566406 C 13.117188 18.566406 13.164062 18.507812 13.164062 18.449219 C 13.164062 18.257812 12.839844 18.316406 12.675781 18.542969 C 12.59375 18.652344 12.429688 18.757812 12.3125 18.773438 C 12.140625 18.78125 12.105469 18.710938 12.152344 18.375 C 12.1875 18.148438 12.152344 17.96875 12.09375 17.96875 C 12.023438 17.96875 12 18.054688 12.046875 18.148438 C 12.09375 18.292969 12.070312 18.304688 11.90625 18.234375 C 11.6875 18.113281 11.40625 18.171875 11.277344 18.375 C 11.230469 18.449219 11.171875 18.472656 11.125 18.4375 C 11.089844 18.398438 11.171875 18.21875 11.3125 18.039062 C 11.558594 17.730469 11.558594 17.703125 11.347656 17.730469 C 10.847656 17.789062 10.800781 17.742188 11.011719 17.417969 C 11.207031 17.105469 11.207031 17.09375 10.976562 17.15625 C 10.648438 17.25 10.53125 16.804688 10.847656 16.710938 C 10.964844 16.664062 11.066406 16.589844 11.066406 16.53125 C 11.066406 16.472656 11.253906 16.386719 11.476562 16.339844 C 11.695312 16.304688 12.070312 16.195312 12.3125 16.113281 C 12.59375 16.015625 12.828125 15.992188 12.957031 16.0625 C 13.058594 16.125 13.164062 16.125 13.1875 16.078125 C 13.292969 15.800781 14.28125 15.214844 14.632812 15.214844 C 15.027344 15.214844 15.996094 15.621094 16.296875 15.90625 C 16.554688 16.160156 16.925781 16.027344 17.066406 15.65625 C 17.160156 15.367188 17.136719 15.285156 16.949219 15.140625 C 16.660156 14.925781 16.496094 14.925781 16.589844 15.152344 C 16.648438 15.308594 16.601562 15.296875 16.378906 15.128906 C 16.214844 15.007812 16.066406 14.734375 16.019531 14.519531 C 15.984375 14.304688 15.878906 14.136719 15.785156 14.136719 C 15.539062 14.136719 15.121094 13.632812 15.25 13.5 C 15.308594 13.441406 15.332031 13.320312 15.308594 13.238281 C 15.273438 13.164062 15.332031 13.023438 15.4375 12.9375 C 15.65625 12.746094 15.65625 12.578125 15.445312 12.578125 C 15.355469 12.578125 15.121094 12.445312 14.933594 12.277344 C 14.539062 11.945312 14.363281 11.917969 14.050781 12.160156 C 13.886719 12.289062 13.792969 12.289062 13.617188 12.183594 C 13.503906 12.109375 13.398438 11.953125 13.386719 11.859375 C 13.386719 11.765625 13.316406 11.871094 13.234375 12.097656 C 13.140625 12.339844 13.117188 12.625 13.164062 12.769531 C 13.28125 13.058594 13.128906 13.367188 12.675781 13.789062 C 12.5 13.957031 12.351562 14.183594 12.351562 14.304688 C 12.351562 14.519531 11.824219 14.828125 11.6875 14.699219 C 11.640625 14.648438 11.707031 14.53125 11.835938 14.445312 C 11.953125 14.351562 12.011719 14.230469 11.964844 14.183594 C 11.917969 14.125 11.824219 14.160156 11.777344 14.242188 C 11.71875 14.328125 11.617188 14.363281 11.546875 14.328125 C 11.476562 14.28125 11.417969 14.304688 11.417969 14.363281 C 11.417969 14.433594 11.371094 14.496094 11.300781 14.496094 C 11.242188 14.496094 11.183594 14.421875 11.183594 14.339844 C 11.183594 14.242188 11.011719 13.992188 10.789062 13.765625 C 10.476562 13.417969 10.414062 13.273438 10.460938 12.949219 C 10.507812 12.625 10.476562 12.554688 10.265625 12.492188 C 9.984375 12.421875 9.84375 12.003906 9.960938 11.621094 C 10.007812 11.488281 9.984375 11.296875 9.902344 11.199219 C 9.832031 11.117188 9.75 10.828125 9.742188 10.578125 C 9.71875 10.328125 9.660156 9.992188 9.613281 9.835938 C 9.519531 9.558594 9.53125 9.558594 10.03125 9.632812 C 10.3125 9.679688 10.671875 9.726562 10.835938 9.738281 C 11 9.75 11.195312 9.8125 11.289062 9.871094 C 11.40625 9.941406 11.429688 9.929688 11.371094 9.847656 C 11.3125 9.75 11.382812 9.703125 11.546875 9.703125 C 11.789062 9.703125 11.789062 9.703125 11.523438 9.453125 L 11.242188 9.210938 L 11.6875 9.273438 C 11.917969 9.308594 12.09375 9.296875 12.070312 9.25 C 12.046875 9.199219 12.152344 9.09375 12.304688 9.019531 C 12.535156 8.914062 12.605469 8.914062 12.664062 9.042969 C 12.699219 9.140625 12.898438 9.25 13.105469 9.296875 C 13.339844 9.332031 13.515625 9.453125 13.546875 9.570312 C 13.570312 9.691406 13.710938 9.8125 13.839844 9.847656 C 14.050781 9.90625 14.097656 9.859375 14.15625 9.535156 C 14.203125 9.332031 14.210938 8.875 14.191406 8.515625 C 14.15625 7.90625 14.132812 7.859375 13.804688 7.761719 C 13.617188 7.714844 13.117188 7.667969 12.699219 7.667969 C 12.28125 7.679688 11.753906 7.667969 11.535156 7.65625 C 10.789062 7.617188 10.253906 7.691406 10.253906 7.8125 C 10.253906 7.859375 10.148438 7.90625 10.03125 7.90625 C 9.773438 7.90625 9.332031 7.332031 9.402344 7.09375 C 9.4375 7.007812 9.390625 6.960938 9.320312 6.972656 C 9.238281 6.996094 9.144531 6.9375 9.113281 6.839844 C 9.078125 6.71875 9.113281 6.695312 9.25 6.742188 C 9.367188 6.792969 9.425781 6.78125 9.378906 6.695312 C 9.332031 6.636719 9.191406 6.613281 9.054688 6.660156 C 8.808594 6.734375 8.808594 6.734375 9.007812 6.503906 C 9.214844 6.253906 9.273438 5.988281 9.101562 5.988281 C 8.914062 5.988281 8.855469 5.628906 9.007812 5.390625 C 9.078125 5.257812 9.238281 5.152344 9.367188 5.152344 C 9.589844 5.152344 9.589844 5.152344 9.367188 4.898438 L 9.144531 4.648438 L 9.113281 4.898438 C 9.089844 5.054688 8.984375 5.152344 8.84375 5.152344 C 8.726562 5.152344 8.621094 5.234375 8.621094 5.332031 C 8.621094 5.425781 8.554688 5.476562 8.472656 5.4375 C 8.390625 5.414062 8.191406 5.484375 8.039062 5.628906 C 7.515625 6.097656 7.238281 5.761719 7.644531 5.164062 C 7.75 5.007812 7.851562 4.765625 7.867188 4.625 C 7.875 4.492188 7.898438 4.300781 7.910156 4.21875 C 7.921875 4.046875 9.53125 2.394531 9.671875 2.394531 C 9.71875 2.394531 9.789062 2.324219 9.820312 2.226562 C 9.972656 1.84375 12.3125 1.988281 13.6875 2.457031 C 13.980469 2.5625 14.363281 2.671875 14.539062 2.695312 C 14.714844 2.71875 14.957031 2.78125 15.085938 2.828125 C 15.460938 2.96875 15.132812 2.636719 14.339844 2.035156 C 13.769531 1.617188 13.664062 1.472656 13.699219 1.234375 C 13.757812 0.921875 13.480469 0.550781 13.070312 0.429688 C 12.933594 0.382812 12.535156 0.394531 12.199219 0.46875 C 11.371094 0.648438 9.589844 0.753906 9.726562 0.625 C 9.925781 0.445312 11.777344 0.203125 12.875 0.203125 C 13.992188 0.214844 14.457031 0.347656 14.886719 0.753906 C 15.039062 0.898438 15.285156 1.066406 15.425781 1.136719 C 15.820312 1.316406 16.738281 2.46875 16.71875 2.765625 C 16.707031 2.898438 16.625 3.066406 16.53125 3.125 C 16.390625 3.222656 16.390625 3.246094 16.542969 3.355469 C 16.636719 3.425781 16.84375 3.460938 17.007812 3.449219 C 17.230469 3.425781 17.3125 3.484375 17.390625 3.773438 C 17.449219 3.964844 17.578125 4.277344 17.660156 4.457031 C 17.753906 4.625 17.824219 4.839844 17.824219 4.921875 C 17.824219 5.007812 17.929688 5.304688 18.070312 5.59375 C 18.476562 6.457031 18.628906 7.222656 18.5 7.8125 C 18.441406 8.085938 18.371094 8.804688 18.347656 9.402344 C 18.324219 9.992188 18.265625 10.6875 18.21875 10.9375 C 18.171875 11.234375 18.195312 11.453125 18.300781 11.570312 C 18.429688 11.738281 18.429688 11.789062 18.253906 11.917969 C 18 12.109375 18.011719 12.328125 18.289062 12.699219 C 18.59375 13.09375 18.582031 13.210938 18.265625 13.117188 C 18.046875 13.046875 18.023438 13.058594 18.148438 13.1875 C 18.21875 13.273438 18.289062 13.441406 18.289062 13.5625 C 18.289062 13.679688 18.371094 13.777344 18.476562 13.777344 C 18.59375 13.777344 18.636719 13.847656 18.59375 13.957031 C 18.546875 14.074219 18.605469 14.136719 18.753906 14.136719 C 19.011719 14.136719 19.082031 14.445312 18.847656 14.519531 C 18.753906 14.554688 18.765625 14.648438 18.90625 14.855469 C 19.152344 15.214844 19.152344 15.332031 18.929688 15.332031 C 18.835938 15.332031 18.753906 15.417969 18.753906 15.511719 C 18.753906 15.609375 18.707031 15.691406 18.636719 15.691406 C 18.464844 15.691406 18.5 16.257812 18.675781 16.328125 C 18.777344 16.375 18.765625 16.421875 18.636719 16.519531 C 18.488281 16.640625 18.488281 16.664062 18.636719 16.757812 C 18.777344 16.867188 18.777344 16.890625 18.605469 16.949219 C 18.464844 17.011719 18.429688 17.128906 18.476562 17.429688 C 18.523438 17.753906 18.476562 17.875 18.21875 18.078125 C 17.976562 18.28125 17.929688 18.363281 18.03125 18.472656 C 18.253906 18.699219 18.207031 18.953125 17.964844 18.878906 C 17.789062 18.820312 17.765625 18.867188 17.800781 19.238281 C 17.835938 19.515625 17.90625 19.644531 18 19.597656 C 18.207031 19.527344 19.816406 20.015625 19.875 20.183594 C 19.976562 20.449219 19.6875 20.964844 19.394531 21.082031 C 19.046875 21.214844 18.90625 21.527344 19.082031 21.707031 C 19.175781 21.800781 19.265625 21.800781 19.394531 21.683594 C 19.546875 21.550781 19.628906 21.574219 19.875 21.8125 C 20.046875 21.96875 20.304688 22.304688 20.457031 22.546875 L 20.734375 23 L 23.878906 23 L 23.878906 0 L 12.910156 0.0117188 C 6.863281 0.0234375 2.054688 0.0703125 2.214844 0.121094 Z M 6.175781 1.4375 C 6.175781 1.582031 6.09375 1.675781 5.988281 1.675781 C 5.851562 1.675781 5.828125 1.710938 5.921875 1.832031 C 6 1.929688 6 2.046875 5.945312 2.15625 C 5.851562 2.300781 5.828125 2.300781 5.828125 2.121094 C 5.828125 1.988281 5.78125 1.941406 5.6875 1.988281 C 5.617188 2.035156 5.59375 2.023438 5.628906 1.953125 C 5.675781 1.882812 5.757812 1.6875 5.816406 1.507812 C 5.953125 1.136719 6.175781 1.089844 6.175781 1.4375 Z M 9.113281 1.472656 C 9.402344 1.738281 9.414062 1.773438 9.25 2.011719 C 9.160156 2.15625 9.019531 2.277344 8.949219 2.277344 C 8.867188 2.277344 8.878906 2.203125 8.972656 2.097656 C 9.144531 1.882812 9.054688 1.867188 8.714844 2.046875 C 8.53125 2.15625 8.496094 2.144531 8.5625 2.023438 C 8.632812 1.917969 8.585938 1.890625 8.414062 1.941406 C 8.273438 1.988281 7.96875 1.917969 7.726562 1.785156 L 7.292969 1.558594 L 7.644531 1.558594 C 7.828125 1.558594 8.039062 1.507812 8.109375 1.449219 C 8.203125 1.351562 8.332031 1.304688 8.738281 1.210938 C 8.773438 1.210938 8.9375 1.328125 9.113281 1.472656 Z M 6.609375 1.890625 C 6.515625 2 6.410156 2.179688 6.375 2.277344 C 6.328125 2.421875 6.304688 2.421875 6.304688 2.25 C 6.292969 2.144531 6.257812 1.976562 6.222656 1.867188 C 6.175781 1.726562 6.222656 1.675781 6.398438 1.675781 C 6.550781 1.675781 6.640625 1.59375 6.65625 1.460938 C 6.664062 1.28125 6.675781 1.28125 6.722656 1.472656 C 6.757812 1.59375 6.699219 1.785156 6.609375 1.890625 Z M 8.308594 5.988281 C 8.191406 6.121094 8.039062 6.230469 7.945312 6.230469 C 7.867188 6.230469 7.828125 6.277344 7.867188 6.347656 C 7.898438 6.410156 7.867188 6.578125 7.773438 6.707031 C 7.609375 6.960938 7.597656 6.949219 7.515625 6.625 C 7.480469 6.445312 7.480469 6.277344 7.539062 6.265625 C 7.585938 6.242188 7.796875 6.121094 7.980469 6 C 8.4375 5.703125 8.554688 5.691406 8.308594 5.988281 Z M 12.429688 8.097656 C 12.839844 8.21875 12.640625 8.359375 11.953125 8.445312 C 11.230469 8.539062 10.988281 8.457031 11.195312 8.195312 C 11.335938 8.027344 11.976562 7.976562 12.429688 8.097656 Z M 8.449219 8.828125 L 8.65625 9.164062 L 8.414062 8.9375 C 8.273438 8.804688 8.15625 8.660156 8.15625 8.601562 C 8.15625 8.433594 8.238281 8.492188 8.449219 8.828125 Z M 5.828125 9.105469 C 6.035156 9.25 5.851562 9.25 5.535156 9.105469 C 5.382812 9.03125 5.363281 8.996094 5.476562 8.996094 C 5.570312 8.996094 5.734375 9.042969 5.828125 9.105469 Z M 14.039062 13.871094 C 14.027344 14.109375 14.003906 14.351562 13.992188 14.398438 C 13.980469 14.460938 13.933594 14.496094 13.875 14.496094 C 13.757812 14.496094 13.734375 14.160156 13.828125 13.621094 C 13.910156 13.140625 14.085938 13.34375 14.039062 13.871094 Z M 15.085938 13.789062 C 15.191406 13.945312 15.15625 13.96875 14.796875 14.0625 C 14.632812 14.101562 14.574219 14.101562 14.65625 14.0625 C 14.726562 14.027344 14.796875 13.921875 14.796875 13.824219 C 14.796875 13.632812 14.980469 13.597656 15.085938 13.789062 Z M 13.046875 14.445312 C 13.046875 14.542969 13 14.589844 12.933594 14.554688 C 12.875 14.519531 12.816406 14.433594 12.816406 14.363281 C 12.816406 14.304688 12.875 14.253906 12.933594 14.253906 C 13 14.253906 13.046875 14.339844 13.046875 14.445312 Z M 10.484375 17.25 C 10.484375 17.308594 10.429688 17.371094 10.359375 17.371094 C 10.300781 17.371094 10.277344 17.308594 10.3125 17.25 C 10.347656 17.179688 10.40625 17.128906 10.4375 17.128906 C 10.460938 17.128906 10.484375 17.179688 10.484375 17.25 Z M 11.671875 18.472656 C 11.59375 18.554688 11.535156 18.566406 11.535156 18.496094 C 11.535156 18.328125 11.671875 18.183594 11.753906 18.269531 C 11.777344 18.304688 11.742188 18.398438 11.671875 18.472656 Z M 11.671875 18.472656 "/>
<path style=" stroke:none;fill-rule:nonzero;fill:rgb(0%,0%,0%);fill-opacity:1;" d="M 2.914062 0.71875 C 2.914062 0.777344 2.996094 0.839844 3.089844 0.839844 C 3.183594 0.839844 3.265625 0.777344 3.265625 0.71875 C 3.265625 0.648438 3.183594 0.597656 3.089844 0.597656 C 2.996094 0.597656 2.914062 0.648438 2.914062 0.71875 Z M 2.914062 0.71875 "/>
<path style=" stroke:none;fill-rule:nonzero;fill:rgb(0%,0%,0%);fill-opacity:1;" d="M 3.472656 0.921875 C 3.542969 0.945312 3.683594 0.945312 3.765625 0.921875 C 3.835938 0.886719 3.777344 0.863281 3.613281 0.863281 C 3.449219 0.863281 3.394531 0.886719 3.472656 0.921875 Z M 3.472656 0.921875 "/>
<path style=" stroke:none;fill-rule:nonzero;fill:rgb(0%,0%,0%);fill-opacity:1;" d="M 4.695312 1.84375 C 4.757812 2.035156 5.011719 2.070312 5.011719 1.882812 C 5.011719 1.796875 4.929688 1.710938 4.835938 1.710938 C 4.734375 1.710938 4.675781 1.773438 4.695312 1.84375 Z M 4.695312 1.84375 "/>
<path style=" stroke:none;fill-rule:nonzero;fill:rgb(0%,0%,0%);fill-opacity:1;" d="M 4.253906 2.277344 C 4.207031 2.347656 4.3125 2.394531 4.476562 2.394531 C 4.640625 2.394531 4.777344 2.335938 4.777344 2.277344 C 4.777344 2.203125 4.675781 2.15625 4.558594 2.15625 C 4.429688 2.15625 4.289062 2.203125 4.253906 2.277344 Z M 4.253906 2.277344 "/>
<path style=" stroke:none;fill-rule:nonzero;fill:rgb(0%,0%,0%);fill-opacity:1;" d="M 2.859375 2.394531 C 2.820312 2.457031 2.84375 2.515625 2.902344 2.515625 C 2.972656 2.515625 3.03125 2.457031 3.03125 2.394531 C 3.03125 2.324219 3.007812 2.277344 2.984375 2.277344 C 2.949219 2.277344 2.890625 2.324219 2.859375 2.394531 Z M 2.859375 2.394531 "/>
<path style=" stroke:none;fill-rule:nonzero;fill:rgb(0%,0%,0%);fill-opacity:1;" d="M 15.691406 8.265625 C 15.074219 8.769531 15.25 9.59375 15.9375 9.390625 C 16.113281 9.34375 16.308594 9.320312 16.367188 9.34375 C 16.4375 9.355469 16.601562 9.367188 16.730469 9.367188 C 16.867188 9.355469 17.042969 9.429688 17.125 9.523438 C 17.34375 9.789062 17.589844 9.738281 17.589844 9.429688 C 17.589844 9.117188 16.984375 8.683594 16.707031 8.792969 C 16.613281 8.828125 16.554688 8.816406 16.601562 8.757812 C 16.636719 8.695312 16.589844 8.625 16.519531 8.589844 C 16.367188 8.53125 16.378906 8.515625 16.949219 8.324219 C 17.136719 8.265625 17.148438 8.230469 17.007812 8.144531 C 16.707031 7.941406 16.007812 8.015625 15.691406 8.265625 Z M 15.691406 8.265625 "/>
<path style=" stroke:none;fill-rule:nonzero;fill:rgb(0%,0%,0%);fill-opacity:1;" d="M 13.710938 11.34375 C 13.539062 11.511719 13.640625 11.621094 13.980469 11.621094 C 14.234375 11.621094 14.304688 11.570312 14.257812 11.441406 C 14.191406 11.261719 13.851562 11.199219 13.710938 11.34375 Z M 13.710938 11.34375 "/>
<path style=" stroke:none;fill-rule:nonzero;fill:rgb(0%,0%,0%);fill-opacity:1;" d="M 8.050781 17.082031 C 8.050781 17.214844 8.085938 17.25 8.121094 17.15625 C 8.15625 17.070312 8.144531 16.960938 8.109375 16.925781 C 8.074219 16.878906 8.039062 16.949219 8.050781 17.082031 Z M 8.050781 17.082031 "/>
<path style=" stroke:none;fill-rule:nonzero;fill:rgb(0%,0%,0%);fill-opacity:1;" d="M 15.226562 19.730469 C 15.15625 20.136719 15.203125 20.21875 15.355469 19.921875 C 15.425781 19.789062 15.4375 19.621094 15.390625 19.539062 C 15.320312 19.429688 15.273438 19.492188 15.226562 19.730469 Z M 15.226562 19.730469 "/>
<path style=" stroke:none;fill-rule:nonzero;fill:rgb(0%,0%,0%);fill-opacity:1;" d="M 16.113281 20.390625 C 15.984375 20.542969 15.878906 20.757812 15.878906 20.867188 C 15.878906 21.046875 15.996094 21.082031 16.507812 21.082031 L 17.136719 21.082031 L 16.761719 20.605469 C 16.554688 20.339844 16.378906 20.125 16.367188 20.125 C 16.355469 20.125 16.238281 20.246094 16.113281 20.390625 Z M 16.113281 20.390625 "/>
<path style=" stroke:none;fill-rule:nonzero;fill:rgb(0%,0%,0%);fill-opacity:1;" d="M 17.335938 21.886719 C 17.335938 22.007812 17.324219 22.171875 17.324219 22.246094 C 17.335938 22.328125 17.21875 22.402344 17.066406 22.402344 C 16.914062 22.402344 16.71875 22.519531 16.613281 22.699219 L 16.425781 23 L 16.832031 23 C 17.171875 23 17.242188 22.953125 17.253906 22.726562 L 17.253906 22.460938 L 17.359375 22.726562 C 17.449219 22.953125 17.554688 23 18 23 L 18.535156 23 L 18.03125 22.351562 C 17.496094 21.648438 17.367188 21.5625 17.335938 21.886719 Z M 17.335938 21.886719 "/>
<path style=" stroke:none;fill-rule:nonzero;fill:rgb(0%,0%,0%);fill-opacity:1;" d="M 15.84375 22.878906 C 15.703125 22.976562 15.726562 23 15.9375 23 C 16.089844 23 16.171875 22.953125 16.132812 22.878906 C 16.054688 22.734375 16.066406 22.734375 15.84375 22.878906 Z M 15.84375 22.878906 "/>
</g>
</svg>
